<?xml version="1.0" encoding="utf-8"?>
<!-- Generator: Adobe Illustrator 21.0.2, SVG Export Plug-In . SVG Version: 6.00 Build 0)  -->
<svg version="1.1" xmlns="http://www.w3.org/2000/svg" xmlns:xlink="http://www.w3.org/1999/xlink" x="0px" y="0px"
	 viewBox="0 0 1920 1080" style="enable-background:new 0 0 1920 1080;" xml:space="preserve">
<style type="text/css">
	.st0{display:none;}
	.st1{display:inline;}
	.st2{fill:#D1D1D1;}
	.st3{fill:none;stroke:#333333;stroke-miterlimit:10;}
	.st4{fill:none;stroke:#FFFFFF;stroke-width:3;stroke-miterlimit:10;}
	.st5{display:inline;fill:none;stroke:#333333;stroke-width:3;stroke-miterlimit:10;}
	.st6{fill:none;stroke:#333333;stroke-width:3;stroke-miterlimit:10;}
	.st7{fill:#D5D6D8;}
	.st8{fill:#D6D7D8;}
	.st9{fill:#FDFDFD;}
	.bathroom { fill: #304701; }
	.bathroom:hover {
		opacity: 0.5;
	}
</style>
<g id="Layer_3" class="st0">
	<g id="XMLID_3_" class="st1">
		<g>
			<g id="XMLID_1_">
				<g>
					<path class="st2" d="M1839.5,633.8v221.7h-192.2l1.4-65l1.8-82c0,0,31.5-4.5,35.5-37.5c2-0.2,3.6-0.4,5-0.5h6.2
						c0.9,0.2,0.9,0.4,0.9,0.5v-0.5v-36.7h0.9h140.4H1839.5z"/>
					<path class="st2" d="M1628.5,624.5c3-8,23-7,23-7l1-27l45.6-0.5v43.8v36.7h-0.9c-0.9-0.2-2.7-0.3-6.2,0h-39l0.5-13
						C1652.5,657.5,1652.5,657.5,1628.5,624.5z"/>
					<path class="st2" d="M1650.5,708.5l1.5-38h39c-1.4,0.1-3,0.3-5,0.5C1682,704,1650.5,708.5,1650.5,708.5z"/>
					<path class="st2" d="M1648.7,790.5l-1.4,65h-53.8v-61.7c53.1-3.2,54-3.3,54-3.3L1648.7,790.5z"/>
					<path class="st2" d="M1462,768.6h89.5h1v-1.5v-10.6c0,0,37.5-7,37.5,37.5c1.2-0.1,2.4-0.1,3.5-0.2v61.7h-4h-128v21h-0.5V768.6
						H1462z"/>
					<path class="st2" d="M1461,733.5v35.1v107.9h-96.4c0,0-0.1,0-0.6-77.8V772c32.6-0.1,36.4-38.5,36.4-38.5h60.1H1461z"/>
					<path class="st2" d="M1455.5,300.5v-41h188h39.8v8.5h-19.8v50.5v89c0,0-73.1,21.6-27.5,67.2l1.1,1.1l-61.7,61.6h-124l39-1
						c0,0,0-40-37-40c1.4-107.4,2.2-165,2.8-196L1455.5,300.5z"/>
					<path class="st2" d="M1346.6,405.1c0.3,0,0.4,0.1,0.4,0.1V300.5h108l-1.1,104.7c0,0-40-5.2-40,36.6
						c-67.4-1.3-67.3-0.1-67.3-0.1L1346.6,405.1z"/>
					<path class="st2" d="M1364,798.7v77.8h-103v-67.1c0.1-10.5,0.3-22.7,0.5-36.9c34.4,0,38.9-39,38.9-39h63.6V772
						c-0.1,0-0.1,0-0.2,0C1363.9,781.8,1363.9,790.7,1364,798.7z"/>
					<path class="st2" d="M1337.7,680.7c-6.8-3.6-12.5-6.7-17.2-9.2l16.2-43.7l44.8,2.1c-0.3,17.5,0.2,21.5,0.4,22.5l0,0.3
						C1379.5,653,1345,658.8,1337.7,680.7z"/>
					<path class="st2" d="M1331.7,520.5c0,0-16.3,77.6,50.6,84.9c-0.4,10.2-0.6,18.2-0.7,24.4l-44.8-2.1l-39.2-75.1l16.1-43.7
						L1331.7,520.5z"/>
					<path class="st2" d="M1246.5,300.5h100l0.1,104.6c-4.2-0.4-37-2.5-37,36.6c-63.1-1.3-63-0.1-63-0.1l0-35.6
						c0.3,0,0.5,0.1,0.5,0.1V301.5h-0.6V300.5z"/>
					<path class="st2" d="M1261,733.5v75.9c-0.9,67.5-0.5,67.1-0.5,67.1h-100.9c0,0-0.1,0-0.6-102.1V772c34.4,0,38.4-38.5,38.4-38.5
						H1261z"/>
					<path class="st2" d="M1196.4,502.9c69.4,59.8,80.7,11.1,99.3-5.4l17.9,11.5l-16.1,43.7l-102.8,2.5l-13-41.2l-0.9-1.5
						L1196.4,502.9z"/>
					<path class="st2" d="M1180.6,674l-21.3-42.6l35.5-76.2l102.8-2.5l39.2,75.1l-16.2,43.7c-23.6-12.6-23.6-12.6-23.6-12.6
						s25.9-75.3-48.5-82.5c-74.4-7.3-54,83.5-52.8,86.2C1196.1,663.8,1188.8,668.8,1180.6,674z"/>
					<path class="st2" d="M1159,774.4v102.1h-104v-50.9c0-0.1,0-0.2,0-0.3c0.1-9.7,0.2-21.3,0.3-35c0-0.9,0-1.7,0-2.6
						c0-2.8,0.1-5.6,0.1-8.5c0-0.9,0-1.9,0-2.8c0-0.6,0-1.3,0-1.9c34.4,0,39.9-40,39.9-40h63.6V772h0
						C1159,772.8,1159,773.6,1159,774.4z"/>
					<path class="st2" d="M1143.6,442.7l0-35.9c0,0,0,0,0,0V301.5h-0.1v0h103l0.1,104.6c-4.5-0.4-38.1-2.3-38.1,36.6
						C1143.5,441.5,1143.6,442.7,1143.6,442.7z"/>
					<path class="st2" d="M1074.9,590.9c0,0,7.5,22.7,34.9,20.4c81.4-11.9,47.9-84.8,47.9-84.8l23-14l0.9,1.5l13,41.2l-35.5,76.2
						l-88.9,4.9l-18.9-36.8L1074.9,590.9z"/>
					<path class="st2" d="M1055,825.4c0,0.1,0,0.2,0,0.3c-0.5,50.9-0.5,50.9-0.5,50.9H951v-103c34-0.4,40.4-40,40.4-40h63.6V825.4z"
						/>
					<path class="st2" d="M1051.4,670.7l18.9-34.5l88.9-4.9l21.3,42.6c-10.2,6.5-21.9,13.2-21.9,13.2s-35.1-58.2-88.3-6.5
						C1051.4,670.7,1051.4,670.7,1051.4,670.7z"/>
					<path class="st2" d="M1143.5,301.5l0.1,105.3c-1.1-0.2-35.2-6.6-42.1,34.7c-59.5,0.9-62.8,1-63,1v-34.9V302.5L1143.5,301.5z"/>
					<path class="st2" d="M951,733.5v40c-0.2,0-0.3,0-0.5,0c0,103,0,103,0,103H848v-35.1c0.2-15.3,0.5-37.3,1-68.9
						c34-0.4,38.4-39,38.4-39H951z"/>
					<path class="st2" d="M939,442V300.5h99.5v2h0v105.1c-0.8-0.2-37.4-11.5-37.4,35.5c-62.6-0.6-62.6-0.6-62.6-0.6V442H939z"/>
					<path class="st2" d="M896.7,656l-15.7,9.6l-0.1-0.2l-19-37.6l32.9-77.3l89.2-4.2l18.9,36.9l-23.5,8.5c0,0-7.5-22.7-34.9-20.4
						C863.1,583.1,896.7,656,896.7,656z"/>
					<path class="st2" d="M879,505.3c8.6-5.3,16.8-10,16.8-10s35.1,58.1,88.3,6.4c18.9,10,18.9,10,18.9,10l-18.9,34.5l-89.2,4.2
						L879,505.3z"/>
					<path class="st2" d="M847.5,876.5H742.6c0,0,0.9,0-0.1-104c34.4,0,41.9-39,41.9-39H848v75.9
						C847.1,876.9,847.5,876.5,847.5,876.5z"/>
					<path class="st2" d="M788.7,412c0-0.7,0-1.4,0-2.1l0.8-153.9l109.3-1v-15.5h39.7v61V442h-112C826.5,442,833.3,404.9,788.7,412z
						"/>
					<path class="st2" d="M742.4,673.7l19.6-38.8l99.9-7.1l19,37.6l0.1,0.2l-23,14c-40-48.2-79.6-15.8-99.3,5.5L742,674.3
						L742.4,673.7z"/>
					<path class="st2" d="M742,732.5v143H640.3v-77.4c0.1-7.7,0.1-16.2,0.2-25.6c33.4,0,39.7-40,39.7-40H742z"/>
					<path class="st2" d="M739.1,513.7c18.4,9.8,18.4,9.8,18.4,9.8s-25.9,75.3,48.5,82.5c74.4,7.3,54-83.4,52.8-86.2
						c-0.6-1.5,10.1-8.5,20.2-14.6l15.8,45.1L862,627.8l-99.9,7.1l-40.2-85.8l17.1-35.1L739.1,513.7z"/>
					<path class="st2" d="M716.7,501.8c9.5,5.1,16.8,9,22.3,11.9l-0.2,0.3l-17.1,35.1l-48.8,4.2h-0.5v-16.5c0.3-6.9,0.8-6.9,0.8-6.9
						S709.1,524.5,716.7,501.8z"/>
					<path class="st2" d="M788.7,409.9l-0.2,32.6c0,0,0,0-109-1c-5.5-33.7-35.8-35-41.2-35l-0.8-166h41v14h0.7v1h110.3v0.5
						L788.7,409.9z"/>
					<path class="st2" d="M672.5,556.9v-3.6h0.5l48.8-4.2l40.2,85.8l-19.6,38.8l-0.4,0.7L722.7,662c0,0,17.3-77.6-49.6-84.9
						C672.8,569.1,672.6,562.4,672.5,556.9z"/>
					<path class="st2" d="M640.3,876.5H534.6v-72.1c0.3-9.1,0.6-19.4,0.9-30.9c34.5,0,41-39,41-39h63.8v63.6
						c-0.8,77.4-0.7,77.4-0.7,77.4h0.7V876.5z"/>
					<path class="st2" d="M574.5,455.5c0,0-38.6-3.3-39,40h-107v-66v-67v-58h143v3L574.5,455.5z"/>
					<path class="st2" d="M535.5,495.5h29v23c-34,0-35,36-35,36h-15v28.9h-86v-87.9H535.5z"/>
					<path class="st2" d="M529.5,611.5c0,43,38,38,38,38v19h-139v-85.1h86v28.1C514.5,611.5,514.5,610.5,529.5,611.5z"/>
					<path class="st2" d="M461.5,734.5l24.5-1.3c-2,0.2-3.2,0.4-3.8,0.4c-2.7,0.4,10.3-0.6,14.8-1c0.3,0,0.5,0,0.7,0
						c0.1,0,0.1,0,0.2,0c0,0,0.1,0,0.1,0c0,0,0,0,0.1,0c0.3,38,36.5,41,36.5,41l0.1-40.5v41v30.5c-1.5,55.5-0.8,68.9-0.3,72.1h-36
						l0,1h-1h-0.1v28h-35.7V734.5z"/>
					<path class="st2" d="M337.3,730.9l29.4,29.4c0,0,7.8-12.8,9.8-25.8c86-2,85,0,85,0v171h-125v-38v-1V730.9H337.3z"/>
					<path class="st2" d="M336.5,867.5H199v-1.6V734.5h91.5c0,0,3,35,45,35c1-96,1-96,1-96v57.4v135.6V867.5z"/>
					<path class="st2" d="M162.3,665.5H92.5H92v-105h154.5v69c-34.5,0.5-39,36-39,36H162.3z"/>
					<path class="st2" d="M671.7,603.1l0.1-12c-0.1,0.1-0.2,0.2-0.3,0.3l-0.2,12.1C671.4,603.4,671.5,603.3,671.7,603.1z
						 M673.3,529.9c0,0-0.6,0-0.8,6.9c-0.2,4-0.2,10.2,0,20.1c0.1,5.5,0.3,12.2,0.6,20.2c66.9,7.3,49.6,84.9,49.6,84.9l19.3,12.4
						l16.7,10.7c19.8-21.2,59.3-53.6,99.3-5.5l23-14l15.7-9.6c0,0-33.6-72.9,47.9-84.8c27.4-2.3,34.9,20.4,34.9,20.4l23.5-8.5
						l-18.9-36.9l18.9-34.5c0,0,0,0-18.9-10c-53.2,51.7-88.3-6.4-88.3-6.4s-8.1,4.7-16.8,10c-10.1,6.2-20.8,13.2-20.2,14.6
						c1.1,2.7,21.5,93.4-52.8,86.2c-74.4-7.3-48.5-82.5-48.5-82.5s0,0-18.4-9.8c-5.6-3-12.9-6.9-22.3-11.9
						C709.1,524.5,673.3,529.9,673.3,529.9z M1070.3,680.7c53.2-51.7,88.3,6.5,88.3,6.5s11.7-6.7,21.9-13.2
						c8.3-5.2,15.5-10.2,15-11.4c-1.1-2.7-21.5-93.4,52.8-86.2c74.4,7.3,48.5,82.5,48.5,82.5s0,0,23.6,12.6
						c4.7,2.5,10.4,5.5,17.2,9.2c7.3-21.9,41.8-27.7,44.3-28.1c0.1,0,0.1,0,0.1,0s0,0-0.1-0.3l0.3-22.4h-0.1l-0.7,0
						c0.1-6.3,0.4-14.3,0.7-24.4c-66.9-7.3-50.6-84.9-50.6-84.9l-18-11.5l-17.9-11.5c-18.7,16.5-29.9,65.3-99.3,5.4l-15.7,9.6
						l-23,14c0,0,33.6,72.9-47.9,84.8c-27.4,2.3-34.9-20.4-34.9-20.4l-23.5,8.5l18.9,36.8l-18.9,34.5
						C1051.4,670.7,1051.4,670.7,1070.3,680.7z M742.5,772.5c1,104,0.1,104,0.1,104H640.3v-1H742v-143h-61.8c0,0-6.3,40-39.7,40
						c-0.1,9.3-0.2,17.8-0.2,25.6v-63.6h-63.8c0,0-6.5,39-41,39c-0.4,11.5-0.7,21.8-0.9,30.9V774v-41l-0.1,40.5c0,0-36.2-3-36.5-41
						c0,0,0.1,0,0.1,0c0.1,0,0.1,0,0.2,0c0,0,0.1,0,0.1,0c0.1,0,0.1,0,0.1,0s-0.2,0-0.5,0c0-0.2,0-0.3,0-0.5c-23,1-15.1,0.9-7.3,0.7
						c-1.8,0.2-3.4,0.3-4.6,0.5c-0.1,0-0.1,0-0.1,0l-24.5,1.3c0,0,1-2-85,0c-2,13-9.8,25.8-9.8,25.8l-29.4-29.4h-0.8v-57.4
						c0,0,0,0-1,96c-42,0-45-35-45-35H199v131.4v1.6H57.5v-202H92h0.5h69.8h45.2c0,0,4.5-35.5,39-36v-69H92v-79h-9.5v-39h160.1v-136
						h-16.1v-9h47v7h155v58v67v66v87.9v85.1h139v-19c0,0-38,5-38-38c-15-1-15,0-15,0v-28.1v-28.9h15c0,0,1-36,35-36v35h1
						c0,0,0,0-1-35v-23h-29c0.5-43.3,39-40,39-40l-3-148v-3h65v-64h1l0.8,166c-0.5,0-0.8,0-0.8,0l1,35l-0.2-35
						c5.4,0,35.7,1.3,41.2,35c109,1,109,1,109,1l0.2-32.6c0,0.7,0,1.4,0,2.1c44.7-7,37.9,30,37.9,30h112v0.5c0,0,0,0,62.6,0.6
						c0-46.9,36.7-35.7,37.4-35.5v0v34.9c0,0,0,0,0,0c0.2,0,3.5-0.1,63-1c6.9-41.3,41-34.9,42.1-34.7l0,35.9c0,0-0.1-1.2,64.9,0.1
						c0-39,33.6-37.1,38.1-36.6l0,35.6c0,0-0.1-1.2,63,0.1c0-39.1,32.9-37.1,37-36.6l0,36.6c0,0-0.1-1.2,67.3,0.1
						c0-41.7,40-36.6,40-36.6l1.1-104.7h0.5l0.8,0c-0.5,31-1.4,88.6-2.8,196c37,0,37,40,37,40l-39,1h124l61.7-61.6l-1.1-1.1
						c-45.6-45.6,27.5-67.2,27.5-67.2v-89h170v165h1h32l11-11h13v46.3h-51v115h-0.2H1699h-0.9V590l-45.6,0.5l-1,27c0,0-20-1-23,7
						c24,33,24,33,24,33l-0.5,13l-1.5,38l-1.8,82l-1.2,0c0,0-0.9,0.1-54,3.3c-1.1,0.1-2.3,0.1-3.5,0.2c0-44.5-37.5-37.5-37.5-37.5
						v10.6v1.5h-1H1462h-1v-35.1h-0.5h-60.1c0,0-3.8,38.4-36.4,38.5v-38.5h-63.6c0,0-4.5,39-38.9,39c-0.2,14.1-0.4,26.3-0.5,36.9
						v-75.9h-63.6c0,0-4,38.5-38.4,38.5v-37.5h-63.6c0,0-5.5,40-39.9,40c0,0.6,0,1.3,0,1.9c0,1,0,1.9,0,2.8c0,2.9,0,5.8-0.1,8.5
						c0,0.9,0,1.7,0,2.6c-0.1,13.8-0.2,25.3-0.3,35v-91.9h-63.6c0,0-6.4,39.6-40.4,40v-40h-63.6c0,0-4.5,38.6-38.4,39
						c-0.2,0-0.3,0-0.5,0c-0.2,14.1-0.4,26.3-0.5,36.9v-75.9h-63.6C784.4,733.5,776.9,772.5,742.5,772.5z"/>
				</g>
				<g>
					<line class="st3" x1="671.7" y1="605.7" x2="671.7" y2="603.1"/>
					<path class="st3" d="M671.2,603.5c0.1-0.1,0.3-0.2,0.4-0.4l0.1-12c-0.1,0.1-0.2,0.2-0.3,0.3L671.2,603.5z"/>
					<path class="st4" d="M881,665.6l-23,14c-40-48.2-79.6-15.8-99.3,5.5L742,674.3L722.7,662c0,0,17.3-77.6-49.6-84.9
						c-0.3-8-0.5-14.6-0.6-20.2c-0.2-9.8-0.2-16.1,0-20.1c0.3-6.9,0.8-6.9,0.8-6.9s35.8-5.4,43.4-28.1c9.5,5.1,16.8,9,22.3,11.9
						c18.4,9.8,18.4,9.8,18.4,9.8s-25.9,75.3,48.5,82.5c74.4,7.3,54-83.4,52.8-86.2c-0.6-1.5,10.1-8.5,20.2-14.6
						c8.6-5.3,16.8-10,16.8-10s35.1,58.1,88.3,6.4c18.9,10,18.9,10,18.9,10l-18.9,34.5l18.9,36.9l-23.5,8.5c0,0-7.5-22.7-34.9-20.4
						c-81.4,11.9-47.9,84.8-47.9,84.8L881,665.6z"/>
					<path class="st4" d="M1180.7,512.5l15.7-9.6c69.4,59.8,80.7,11.1,99.3-5.4l17.9,11.5l18,11.5c0,0-16.3,77.6,50.6,84.9
						c-0.4,10.2-0.6,18.2-0.7,24.4c-0.3,17.5,0.2,21.5,0.4,22.5c0.1,0.3,0.1,0.3,0.1,0.3s0,0-0.1,0c-2.5,0.4-36.9,6.2-44.3,28.1
						c-6.8-3.6-12.5-6.7-17.2-9.2c-23.6-12.6-23.6-12.6-23.6-12.6s25.9-75.3-48.5-82.5c-74.4-7.3-54,83.5-52.8,86.2
						c0.5,1.2-6.8,6.2-15,11.4c-10.2,6.5-21.9,13.2-21.9,13.2s-35.1-58.2-88.3-6.5c-18.9-10-18.9-10-18.9-10l18.9-34.5l-18.9-36.8
						l23.5-8.5c0,0,7.5,22.7,34.9,20.4c81.4-11.9,47.9-84.8,47.9-84.8L1180.7,512.5z"/>
					<polyline class="st4" points="673,553.3 721.9,549.1 762,634.9 862,627.8 894.9,550.4 984.1,546.2 					"/>
					<line class="st4" x1="721.9" y1="549.1" x2="738.9" y2="514"/>
					<line class="st4" x1="762" y1="634.9" x2="742.4" y2="673.7"/>
					<line class="st4" x1="862" y1="627.8" x2="880.9" y2="665.4"/>
					<line class="st4" x1="894.9" y1="550.4" x2="879" y2="505.3"/>
					<polyline class="st4" points="1070.3,636.3 1159.3,631.4 1194.7,555.2 1297.6,552.7 1336.7,627.8 1381.6,629.8 1382.2,629.9
											"/>
					<line class="st4" x1="1194.7" y1="555.2" x2="1181.7" y2="514"/>
					<polyline class="st4" points="1159.3,631.4 1180.6,674 1181.7,676.2 					"/>
					<line class="st4" x1="1297.6" y1="552.7" x2="1313.7" y2="509"/>
					<line class="st4" x1="1336.7" y1="627.8" x2="1320.5" y2="671.5"/>
					<path class="st4" d="M789,256h0.5l109.3-1v-15.5V239h39.7h0.5v61.5V442h-0.5h-112c0,0,6.8-37.1-37.9-30c0-0.7,0-1.4,0-2.1
						c0.3-147.9,0-147.9,0-147.9"/>
					<path class="st4" d="M1038.5,407.6c-0.8-0.2-37.4-11.5-37.4,35.5c-62.6-0.6-62.6-0.6-62.6-0.6V442V300.5"/>
					<path class="st4" d="M1038.5,442.5v-34.9c0,0,0,0,0,0"/>
					<polyline class="st4" points="1038.5,300.5 1038.5,302.5 1038.5,407.6 					"/>
					<path class="st4" d="M1143.5,301.5L1143.5,301.5l0.1,105.3c0,0,0,0,0,0c-1.1-0.2-35.2-6.6-42.1,34.7c-59.5,0.9-62.8,1-63,1
						c0,0,0,0,0,0v-34.9v0V302.5h0L1143.5,301.5z"/>
					<path class="st4" d="M1143.5,301.5L1143.5,301.5l103,0h0.6v104.7c0,0-0.2,0-0.5-0.1c-4.5-0.4-38.1-2.3-38.1,36.6
						c-65-1.3-64.9-0.1-64.9-0.1l0-35.9L1143.5,301.5z"/>
					<path class="st4" d="M1347,300.5v104.7c0,0-0.2,0-0.4-0.1c-4.2-0.4-37-2.5-37,36.6c-63.1-1.3-63-0.1-63-0.1l0-35.6l-0.1-104.6
						v-1"/>
					<path class="st4" d="M1455,300.5l-1.1,104.7c0,0-40-5.2-40,36.6c-67.4-1.3-67.3-0.1-67.3-0.1l0-36.6l-0.1-104.6"/>
					<path class="st4" d="M498,732.5C498,732.5,498,732.5,498,732.5c0-0.2,0-0.4,0-0.5c-23,1-15.1,0.9-7.3,0.7
						C493.8,732.6,496.9,732.5,498,732.5c0.3,0,0.5,0,0.5,0"/>
					<path class="st4" d="M534.6,877.5v-1v-72.1V774v-41l-0.1,40.5c0,0-36.2-3-36.5-41"/>
					<polyline class="st4" points="497.2,905.5 497.2,877.5 497.3,877.5 					"/>
					<path class="st4" d="M337.3,730.9l29.4,29.4c0,0,7.8-12.8,9.8-25.8c86-2,85,0,85,0v171"/>
					<path class="st4" d="M199.5,715.5c0,0-46.4,0-37.2-50c0.1-0.3,0.1-0.7,0.2-1"/>
					<path class="st4" d="M640.3,877.5v-1v-1v-77.4v-63.6h-63.8c0,0-6.5,39-41,39c-0.4,11.5-0.7,21.8-0.9,30.9
						c-1.5,55.5-0.8,68.9-0.3,72.1c0.1,0.9,0.3,1,0.3,1"/>
					<polyline class="st4" points="639.6,875.5 640.3,875.5 742,875.5 					"/>
					<polyline class="st4" points="742,875.5 742,732.5 680.2,732.5 					"/>
					<path class="st4" d="M848,876.5v-35.1v-32v-75.9h-63.6c0,0-7.5,39-41.9,39c1,104,0.1,104,0.1,104"/>
					<path class="st4" d="M951,876.5v-103v-40h-63.6c0,0-4.5,38.6-38.4,39c-0.2,0-0.3,0-0.5,0c-0.2,14.1-0.4,26.3-0.5,36.9
						c-0.9,67.5-0.5,67.1-0.5,67.1"/>
					<path class="st4" d="M1055,825.4v-91.9h-63.6c0,0-6.4,39.6-40.4,40c-0.2,0-0.3,0-0.5,0c0,103,0,103,0,103"/>
					<line class="st4" x1="1055" y1="876.5" x2="1055" y2="825.6"/>
					<path class="st4" d="M1159,877.5v-1V774.4V772v-37.5h-63.6c0,0-5.5,40-39.9,40"/>
					<path class="st4" d="M1261,876.5v-67.1v-75.9h-63.6c0,0-4,38.5-38.4,38.5h0c0,0.8,0,1.6,0,2.4c0.5,102.1,0.6,102.1,0.6,102.1"
						/>
					<path class="st4" d="M1364,876.5v-77.8V772v-38.5h-63.6c0,0-4.5,39-38.9,39c-0.2,14.1-0.4,26.3-0.5,36.9
						c-0.9,67.5-0.5,67.1-0.5,67.1"/>
					<path class="st4" d="M1461,876.5V768.6v-35.1h-0.5h-60.1c0,0-3.8,38.4-36.4,38.5c-0.1,0-0.1,0-0.2,0c0.1,9.8,0.1,18.7,0.2,26.7
						c0.5,77.8,0.6,77.8,0.6,77.8"/>
					<polyline class="st4" points="635.5,495.5 672.5,495.5 672.5,536.8 672.5,553.3 672.5,556.9 672.5,682.5 636.5,682.5 					"/>
					<path class="st4" d="M571.5,307.5l3,148c0,0-38.6-3.3-39,40c0,0.3,0,0.5,0,0.8"/>
					<polyline class="st4" points="1384.5,489.5 1382.3,629.9 1382,652.3 1382,652.6 1381.5,682.5 					"/>
					<path class="st4" d="M1698.1,671C1698.1,671,1698.1,671,1698.1,671v-0.5v-36.7V590l-45.6,0.5l-1,27c0,0-20-1-23,7
						c24,33,24,33,24,33l-0.5,13l-1.5,38"/>
					<path class="st4" d="M1647.3,856.7l0-1.2l1.4-65l1.8-82c0,0,31.5-4.5,35.5-37.5c2-0.2,3.6-0.4,5-0.5c3.5-0.3,5.2-0.2,6.2,0
						c0.9,0.2,0.9,0.4,0.9,0.5"/>
					<polyline class="st4" points="1698.5,670.5 1698.1,670.5 1697.1,670.5 1691,670.5 1652,670.5 1651.5,670.5 					"/>
					<line class="st4" x1="1699" y1="633.8" x2="1839.3" y2="633.8"/>
					<path class="st4" d="M1662.5,450.5l-25.3,25.4l-61.7,61.6h-124l39-1c0,0,0-40-37-40c1.4-107.4,2.2-165,2.8-196
						c0.6-35.9,0.7-36,0.7-36"/>
					<path class="st4" d="M1663.5,318.5v89c0,0-73.1,21.6-27.5,67.2"/>
					<line class="st4" x1="242.5" y1="445.5" x2="282.5" y2="445.5"/>
					<polyline class="st4" points="1446.5,637.5 1460.5,637.5 1567.5,637.5 1581.5,619.5 1608,646 1608,725.3 					"/>
					<polyline class="st4" points="1460.5,734.5 1460.5,733.5 1460.5,637.5 					"/>
					<line class="st4" x1="1461.5" y1="683.5" x2="1551.7" y2="683.5"/>
					<path class="st4" d="M1552.5,756.5c0,0,37.5-7,37.5,37.5c1.2-0.1,2.4-0.1,3.5-0.2c53.1-3.2,54-3.3,54-3.3"/>
					<line class="st4" x1="1552.5" y1="789.5" x2="1552.5" y2="768.6"/>
					<polyline class="st4" points="1552.5,768.6 1552.5,767.1 1552.5,756.5 					"/>
					<line class="st4" x1="1552.5" y1="726.5" x2="1552.5" y2="756.5"/>
					<line class="st4" x1="1462" y1="768.6" x2="1551.5" y2="768.6"/>
					<polyline class="st4" points="1593.5,792.5 1593.5,793.8 1593.5,855.5 					"/>
					<path class="st4" d="M638.3,406.5c5.4,0,35.7,1.3,41.2,35c109,1,109,1,109,1l0.2-32.6l0.8-153.9v-0.5H679.2v-1v-15h-41.7v1
						L638.3,406.5"/>
					<path class="st4" d="M638.3,406.5l0.2,35l-1-35C637.5,406.5,637.8,406.5,638.3,406.5z"/>
					<polyline class="st4" points="897.5,239.5 897.5,238.5 938.5,238.5 938.5,239 938.5,239.5 					"/>
					<line class="st4" x1="225.5" y1="297.5" x2="226.5" y2="297.5"/>
					<polyline class="st4" points="226.5,297.5 273.5,297.5 273.5,304.5 428.5,304.5 					"/>
					<line class="st4" x1="428.5" y1="304.5" x2="571.5" y2="304.5"/>
					<polyline class="st4" points="571.5,304.5 636.5,304.5 636.5,240.5 637.5,240.5 					"/>
					<polyline class="st4" points="637.5,240.5 678.5,240.5 678.5,254.5 679.2,254.5 					"/>
					<polyline class="st4" points="679.2,254.5 897.5,254.5 897.5,239.5 					"/>
					<polyline class="st4" points="938.5,239.5 898.8,239.5 897.5,239.5 					"/>
					<line class="st4" x1="938.5" y1="239.5" x2="938.5" y2="300.5"/>
					<line class="st4" x1="938.5" y1="300.5" x2="939" y2="300.5"/>
					<line class="st4" x1="939" y1="300.5" x2="1038.5" y2="300.5"/>
					<line class="st4" x1="1038.5" y1="300.5" x2="1246.5" y2="300.5"/>
					<line class="st4" x1="1246.5" y1="300.5" x2="1346.5" y2="300.5"/>
					<line class="st4" x1="1346.5" y1="300.5" x2="1347" y2="300.5"/>
					<line class="st4" x1="1347" y1="300.5" x2="1455" y2="300.5"/>
					<line class="st4" x1="1455" y1="300.5" x2="1455.5" y2="300.5"/>
					<polyline class="st4" points="1455.5,300.5 1455.5,259.5 1643.5,259.5 1683.3,259.5 1683.3,268 1663.5,268 1663.5,318.5
						"/>
					<polyline class="st4" points="1663.5,318.5 1833.5,318.5 1833.5,483.5 1834.5,483.5 					"/>
					<polyline class="st4" points="497.3,905.5 497.3,877.5 498.3,877.5 534.5,877.5 534.6,877.5 640.3,877.5 1159,877.5
						1461.5,877.5 1461.5,876.5 1461.5,855.5 					"/>
					<line class="st4" x1="226.5" y1="297.5" x2="226.5" y2="296.5"/>
					<polyline class="st4" points="226.5,297.5 226.5,306.5 242.6,306.5 242.6,442.5 82.5,442.5 82.5,481.5 92,481.5 92,560.5
						"/>
					<line class="st4" x1="92" y1="560.5" x2="92" y2="665.5"/>
					<polyline class="st4" points="92,665.5 57.5,665.5 57.5,867.5 199,867.5 					"/>
					<line class="st4" x1="199" y1="867.5" x2="336.5" y2="867.5"/>
					<polyline class="st4" points="336.5,867.5 336.5,905.5 461.5,905.5 					"/>
					<line class="st4" x1="461.5" y1="905.5" x2="497.2" y2="905.5"/>
					<line class="st4" x1="497.2" y1="905.5" x2="497.3" y2="905.5"/>
					<polyline class="st4" points="847.5,876.5 742.6,876.5 640.3,876.5 534.6,876.5 534.3,876.5 498.3,876.5 498.3,877.5
						497.3,905.5 					"/>
					<line class="st4" x1="1054.5" y1="876.5" x2="951" y2="876.5"/>
					<polyline class="st4" points="1461.5,855.5 1462.5,876.5 1461.5,876.5 1461,876.5 1364.6,876.5 1364,876.5 1261,876.5
						1260.5,876.5 1159.6,876.5 1159,876.5 1055,876.5 					"/>
					<polyline class="st4" points="1461.5,855.5 1589.5,855.5 1593.5,855.5 					"/>
					<line class="st4" x1="1593.5" y1="855.5" x2="1647.3" y2="855.5"/>
					<polyline class="st4" points="1647.3,855.5 1839.5,855.5 1839.5,633.8 					"/>
					<polyline class="st4" points="1834.5,483.5 1866.5,483.5 1877.5,472.5 1890.5,472.5 1890.5,518.8 1839.5,518.8 1839.5,633.8
											"/>
					<polyline class="st4" points="564.5,518.5 564.5,495.5 535.5,495.5 428.5,495.5 339.5,495.5 					"/>
					<path class="st4" d="M564.5,518.5c1,35,1,35,1,35h-1V518.5z"/>
					<path class="st4" d="M567.5,649.5c0,0-38,5-38-38c-15-1-15,0-15,0v-28.1v-28.9h15c0,0,1-36,35-36"/>
					<polyline class="st4" points="428.5,302.5 428.5,304.5 428.5,362.5 428.5,429.5 428.5,495.5 428.5,583.4 428.5,668.5
						567.5,668.5 567.5,649.5 567.5,610.7 					"/>
					<polyline class="st4" points="338.5,623.5 338.5,583.4 338.5,533.5 					"/>
					<polyline class="st4" points="514.9,583.4 514.5,583.4 428.5,583.4 427.5,583.4 338.5,583.4 					"/>
					<polyline class="st4" points="431.5,429.5 428.5,429.5 340.5,429.5 					"/>
					<polyline class="st4" points="430.5,362.5 428.5,362.5 339,362.5 					"/>
					<line class="st4" x1="246.5" y1="560.5" x2="246.5" y2="494.5"/>
					<line class="st4" x1="246.5" y1="630.5" x2="246.5" y2="629.5"/>
					<line class="st4" x1="246.5" y1="629.5" x2="246.5" y2="560.5"/>
					<polyline class="st4" points="90.5,560.5 92,560.5 246.5,560.5 					"/>
					<path class="st4" d="M199,734.5h91.5c0,0,3,35,45,35c1-96,1-96,1-96v57.4v135.6"/>
					<polyline class="st4" points="199,865.9 199,734.5 199,718.5 					"/>
					<path class="st4" d="M245.5,665.5h-38c0,0,4.5-35.5,39-36"/>
					<polyline class="st4" points="92.5,665.5 162.3,665.5 207.5,665.5 					"/>
					<polyline class="st4" points="1834.5,483.5 1834.5,490.5 1702.5,490.5 1662.5,530.5 1662.5,545.5 					"/>
					<polyline class="st4" points="1054.5,876.5 1055,876.5 1159,877.5 					"/>
					<path class="st4" d="M1055.5,774c0,0.2,0,0.3,0,0.5"/>
					<path class="st4" d="M1055.5,774.5c0,0.6,0,1.3,0,1.9c0,1,0,1.9,0,2.8c0,2.9,0,5.8-0.1,8.5c0,0.9,0,1.7,0,2.6
						c-0.1,13.8-0.2,25.3-0.3,35c0,0.1,0,0.2,0,0.3c-0.5,50.9-0.5,50.9-0.5,50.9"/>
					<path class="st4" d="M849,772c0,0.2,0,0.3,0,0.5c-0.4,31.6-0.8,53.6-1,68.9c-0.5,35.1-0.5,35.1-0.5,35.1h0.5h102.5h0.5"/>
					<path class="st4" d="M680.2,732.5c0,0-6.3,40-39.7,40c-0.1,9.3-0.2,17.8-0.2,25.6c-0.8,77.4-0.7,77.4-0.7,77.4"/>
					<line class="st4" x1="486" y1="733.2" x2="461.5" y2="734.5"/>
					<line class="st4" x1="498" y1="732.5" x2="486.2" y2="733.2"/>
					<polyline class="st4" points="497.9,732.5 498,732.5 498,732.5 					"/>
					<path class="st4" d="M482.6,733.6c-0.2,0-0.3,0-0.3,0"/>
					<path class="st4" d="M482.7,733.6c-0.1,0-0.1,0-0.1,0"/>
					<path class="st4" d="M482.7,733.6c0,0,0.1,0,0.1,0"/>
					<path class="st4" d="M483.1,733.6C483,733.5,483,733.6,483.1,733.6c-0.1,0-0.1,0-0.2,0c0,0-0.1,0-0.1,0"/>
					<path class="st4" d="M483.5,733.5C483.5,733.5,483.4,733.5,483.5,733.5c-0.1,0-0.2,0-0.3,0c0,0-0.1,0-0.1,0c-0.1,0-0.1,0-0.1,0
						"/>
					<path class="st4" d="M483.9,733.5c-0.1,0-0.1,0-0.1,0c0,0-0.1,0-0.1,0"/>
					<path class="st4" d="M484.1,733.5C484.1,733.5,484.1,733.5,484.1,733.5"/>
					<path class="st4" d="M484.3,733.5c-0.1,0-0.1,0-0.2,0c0,0,0,0,0,0c0,0,0,0,0,0c0,0,0,0-0.1,0c0,0-0.1,0-0.1,0c0,0,0,0-0.1,0
						c0,0-0.1,0-0.1,0c0,0-0.1,0-0.1,0c-0.1,0-0.2,0-0.2,0"/>
					<path class="st4" d="M485.5,733.4C485.4,733.4,485.4,733.4,485.5,733.4"/>
					<path class="st4" d="M485.9,733.4C485.9,733.4,485.9,733.4,485.9,733.4c-0.1,0-0.1,0-0.1,0"/>
					<path class="st4" d="M485.8,733.4C485.8,733.4,485.8,733.4,485.8,733.4"/>
					<path class="st4" d="M485.7,733.4C485.7,733.4,485.7,733.4,485.7,733.4C485.7,733.4,485.7,733.4,485.7,733.4"/>
					<path class="st4" d="M485.4,733.4C485.4,733.4,485.4,733.4,485.4,733.4c-0.3,0-0.4,0-0.6,0c-0.2,0-0.4,0-0.5,0"/>
					<path class="st4" d="M485.4,733.4L485.4,733.4C485.4,733.4,485.4,733.4,485.4,733.4L485.4,733.4c0.1,0,0.1,0,0.1,0"/>
					<path class="st4" d="M486,733.3c0,0-0.1,0-0.1,0c0,0-0.1,0-0.1,0h0c0,0,0,0-0.1,0c0,0,0,0,0,0c0,0,0,0,0,0c0,0,0,0,0,0
						c0,0-0.1,0-0.1,0c0,0,0,0-0.1,0"/>
					<path class="st4" d="M493.8,732.8c0,0-0.8,0.1-2,0.1c-0.3,0-0.7,0-1,0.1l-0.5,0c-0.5,0-0.9,0.1-1.4,0.1c-0.3,0-0.5,0-0.7,0
						c-0.1,0-0.1,0-0.1,0c-0.6,0-1.1,0.1-1.5,0.1c-0.2,0-0.4,0-0.6,0"/>
					<path class="st4" d="M493.6,732.8c0.1,0,0.1,0,0.2,0"/>
					<path class="st4" d="M497.7,732.6c-0.2,0-0.5,0-0.7,0c-1.2,0.1-2.2,0.1-3.2,0.2h0c0,0,0,0,0,0"/>
					<path class="st4" d="M498.1,732.5c0,0-0.1,0-0.1,0v0"/>
					<path class="st4" d="M498,732c-2.9,0.3-5.3,0.5-7.3,0.7c-1.8,0.2-3.4,0.3-4.6,0.5c-0.1,0-0.1,0-0.1,0c-2,0.2-3.2,0.4-3.8,0.4
						c-2.7,0.4,10.3-0.6,14.8-1c0.3,0,0.5,0,0.7,0c0.1,0,0.1,0,0.2,0c0,0,0.1,0,0.1,0c0,0,0,0,0.1,0c0,0,0.1,0,0.1,0
						c0.1,0,0.1,0,0.2,0c0,0,0.1,0,0.1,0c0.1,0,0.1,0,0.1,0"/>
				</g>
			</g>
		</g>
	</g>
</g>
<g id="Layer_4" class="st0">
	<g class="st1">
		<path class="st3" d="M667.2,605.5c0.1-0.1,0.3-0.2,0.4-0.4c0,0.8,0,1.7,0,2.5l0.1-14.5c-0.1,0.1-0.2,0.2-0.3,0.3L667.2,605.5z"/>
	</g>
	<path class="st5" d="M754.7,687l-36-23c0,0,17.3-77.6-49.6-84.9c-1.8-47.2,0.2-47.2,0.2-47.2s35.8-5.4,43.4-28.1
		c40.7,21.8,40.7,21.8,40.7,21.8s-25.8,75.3,48.5,82.5c74.4,7.3,54-83.5,52.8-86.2c-1.1-2.7,37-24.6,37-24.6s35.1,58.1,88.3,6.4
		c18.9,10,18.9,10,18.9,10l-18.9,34.5l18.9,36.8l-23.5,8.5c0,0-7.5-22.7-34.9-20.4c-81.4,11.9-47.9,84.8-47.9,84.8L854,681.6
		C814,633.4,774.5,665.8,754.7,687z"/>
	<path class="st5" d="M1291.7,499.5l36,23c0,0-16.3,77.6,50.6,84.9c-1.8,47.1-0.2,47.2-0.2,47.2s-36.8,5.4-44.4,28.1
		c-40.7-21.8-40.7-21.8-40.7-21.8s25.8-75.3-48.5-82.5s-54,83.5-52.8,86.2c1.1,2.7-37,24.6-37,24.6s-35.1-58.1-88.3-6.4
		c-18.9-10-18.9-10-18.9-10l18.9-34.5l-18.9-36.8l23.5-8.5c0,0,7.5,22.7,34.9,20.4c81.4-11.9,47.9-84.8,47.9-84.8l38.7-23.6
		C1261.8,564.7,1273.1,516,1291.7,499.5z"/>
	<polyline class="st5" points="669,555.3 717.9,551.1 758,636.9 858,629.8 890.9,552.4 980.1,548.2 	"/>
	<line class="st5" x1="717.9" y1="551.1" x2="734.9" y2="516"/>
	<line class="st5" x1="758" y1="636.9" x2="738.4" y2="675.7"/>
	<line class="st5" x1="858" y1="629.8" x2="876.9" y2="667.4"/>
	<line class="st5" x1="890.9" y1="552.4" x2="875" y2="507.3"/>
	<polyline class="st5" points="1066.3,638.3 1155.3,633.4 1190.7,557.2 1293.6,554.7 1332.7,629.8 1378.2,631.9 	"/>
	<line class="st5" x1="1190.7" y1="557.2" x2="1177.7" y2="516"/>
	<line class="st5" x1="1155.3" y1="633.4" x2="1177.7" y2="678.2"/>
	<line class="st5" x1="1293.6" y1="554.7" x2="1309.7" y2="511"/>
	<line class="st5" x1="1332.7" y1="629.8" x2="1316.5" y2="673.5"/>
	<path class="st5" d="M785,258l109.8-1v-16H935v203H822.5c0,0,6.8-37.1-37.9-30c0.3-150,0-150,0-150"/>
	<path class="st5" d="M934.5,302.5h100v142v-34.9c0,0-37.4-12-37.4,35.4c-62.6-0.6-62.6-0.6-62.6-0.6V302.5z"/>
	<path class="st5" d="M1139.6,303.5v105.3c0,0-35.1-7.3-42.1,34.7c-63,1-63,1-63,1v-140L1139.6,303.5z"/>
	<path class="st5" d="M1139.5,303.5h103.6v104.7c0,0-38.6-5.2-38.6,36.6c-65-1.3-64.9-0.1-64.9-0.1L1139.5,303.5z"/>
	<path class="st5" d="M1242.5,302.5H1343v104.7c0,0-37.5-5.2-37.5,36.6c-63-1.3-63-0.1-63-0.1L1242.5,302.5z"/>
	<path class="st5" d="M1342.5,302.5H1451l-1.1,104.7c0,0-40-5.2-40,36.6c-67.4-1.3-67.3-0.1-67.3-0.1L1342.5,302.5z"/>
	<path class="st5" d="M333.3,732.9l29.4,29.4c0,0,7.8-12.8,9.8-25.8c86-2,85,0,85,0v171h35.7v-28h37.3V776v-41l-0.1,40.5
		c0,0-36.5-3-36.5-41.5c-34.5,1.5-21.9,0-21.9,0l-14.6,2.5"/>
	<path class="st5" d="M195.5,717.5c0,0-47,0-37-51"/>
	<path class="st5" d="M636.3,879.5v-143h-63.8c0,0-6.5,39-41,39c-3.5,105.5-0.9,104-0.9,104H636.3"/>
	<path class="st5" d="M738,877.5v-143h-61.8c0,0-3.9,38.5-37.3,38.5c-3.4,105.5-3.3,104.5-3.3,104.5H738"/>
	<path class="st5" d="M844,878.5v-143h-63.6c0,0-4,38.5-38.4,38.5c-3.5,105.5-3.4,104.5-3.4,104.5H844"/>
	<path class="st5" d="M947,878.5v-143h-63.6c0,0-4,38.5-38.4,38.5c-3.5,105.5-3.4,104.5-3.4,104.5H947"/>
	<path class="st5" d="M1051,878.5v-143h-63.6c0,0-4,38.5-38.4,38.5c-3.5,105.5-3.4,104.5-3.4,104.5H1051"/>
	<path class="st5" d="M1155,879.5v-143h-63.6c0,0-4,38.5-38.4,38.5c-3.5,105.5-3.4,104.5-3.4,104.5H1155"/>
	<path class="st5" d="M1257,878.5v-143h-63.6c0,0-4,38.5-38.4,38.5c-3.5,105.5-3.4,104.5-3.4,104.5H1257"/>
	<path class="st5" d="M1360,878.5v-143h-63.6c0,0-4,38.5-38.4,38.5c-3.5,105.5-3.4,104.5-3.4,104.5H1360"/>
	<path class="st5" d="M1457,878.5v-143h-60.6c0,0-3.8,38.5-36.6,38.5c-3.3,105.5-3.3,104.5-3.3,104.5H1457"/>
	<polyline class="st5" points="631.5,497.5 668.5,497.5 668.5,684.5 632.5,684.5 	"/>
	<path class="st5" d="M567.5,309.5l3,148c0,0-39.1-3.3-39,40.8"/>
	<line class="st5" x1="1380.5" y1="491.5" x2="1377.5" y2="684.5"/>
	<path class="st5" d="M1643.3,858.7l3.2-148.2c0,0,31.5-4.5,35.5-37.5c12.5-1.5,12.1,0,12.1,0v-81l-45.6,0.5l-1,27c0,0-20-1-23,7
		c24,33,24,33,24,33l-2,51"/>
	<line class="st5" x1="1694.5" y1="672.5" x2="1647.5" y2="672.5"/>
	<line class="st5" x1="1695" y1="635.8" x2="1835.3" y2="635.8"/>
	<path class="st5" d="M1658.5,452.5l-87,87h-124l39-1c0,0,0-40-37-40c3-232,3.5-231.9,3.5-231.9"/>
	<path class="st5" d="M1659.5,320.5v89c0,0-73.1,21.6-27.5,67.2"/>
	<line class="st5" x1="238.5" y1="447.5" x2="278.5" y2="447.5"/>
	<polyline class="st5" points="1464.5,738.5 1464.5,639.5 1442.5,639.5 1563.5,639.5 1577.5,621.5 1604,648 1604,727.3 	"/>
	<line class="st5" x1="1464.5" y1="685.5" x2="1554.7" y2="685.5"/>
	<path class="st5" d="M1548.5,728.5v63v-33c0,0,37.5-7,37.5,37.5c58.5-3.5,57.5-3.5,57.5-3.5"/>
	<line class="st5" x1="1460.4" y1="769.1" x2="1545.5" y2="769.1"/>
	<line class="st5" x1="1589.5" y1="794.5" x2="1589.5" y2="857.5"/>
	<path class="st5" d="M633.5,241.5l1,202l-1-35c0,0,36-2,42,35c109,1,109,1,109,1l1-187H675.2v-16H633.5z"/>
	<g id="XMLID_2_" class="st1">
		<g>
		</g>
		<g>
			<polyline class="st6" points="893.5,241.5 893.5,240.5 934.5,240.5 934.5,241.5 			"/>
			<line class="st6" x1="221.5" y1="299.5" x2="222.5" y2="299.5"/>
			<polyline class="st6" points="222.5,299.5 269.5,299.5 269.5,306.5 632.5,306.5 632.5,242.5 674.5,242.5 674.5,256.5
				893.5,256.5 893.5,241.5 			"/>
			<line class="st6" x1="934.5" y1="241.5" x2="893.5" y2="241.5"/>
			<line class="st6" x1="222.5" y1="299.5" x2="222.5" y2="298.5"/>
			<polyline class="st6" points="222.5,299.5 222.5,308.5 238.6,308.5 238.6,444.5 78.5,444.5 78.5,483.5 88,483.5 88,667.5
				53.5,667.5 53.5,869.5 332.5,869.5 332.5,907.5 493.3,907.5 493.3,879.5 1457.5,879.5 1457.5,857.5 1585.5,857.5 1835.5,857.5
				1835.5,520.8 1886.5,520.8 1886.5,474.5 1873.5,474.5 1862.5,485.5 1829.5,485.5 1829.5,320.5 1659.5,320.5 1659.5,270
				1679.3,270 1679.3,261.5 1639.5,261.5 1451.5,261.5 1451.5,302.5 934.5,302.5 934.5,241.5 			"/>
		</g>
	</g>
	<path class="st5" d="M424.5,304.5v366h139v-57.8v38.8c0,0-38,5-38-38c-15-1-15,0-15,0v-57h15c0,0,1-36,35-36c1,35,1,35,1,35h-1v-58
		h-136h-89"/>
	<polyline class="st5" points="510.9,585.4 423.5,585.4 334.5,585.4 334.5,625.5 334.5,535.5 	"/>
	<line class="st5" x1="427.5" y1="431.5" x2="336.5" y2="431.5"/>
	<line class="st5" x1="426.5" y1="364.5" x2="335" y2="364.5"/>
	<polyline class="st5" points="86.5,562.5 242.5,562.5 242.5,632.5 242.5,496.5 	"/>
	<path class="st5" d="M195,867.9V720.5v16h91.5c0,0,3,35,45,35c1-96,1-96,1-96v193"/>
	<path class="st5" d="M88.5,667.5h153h-38c0,0,4.5-35.5,39-36"/>
	<polyline class="st5" points="1830.5,485.5 1830.5,492.5 1698.5,492.5 1658.5,532.5 1658.5,547.5 	"/>
</g>
<g id="Layer_2" class="st0">
</g>
<g id="Layer_5">
	<g>
		<path class="st7 bathroom bathroom-1" d="M1537.8,731h-0.8v-55.1c-0.1,0-0.1,0-0.2,0c-1.3,0.1-2.7,0.1-4,0.1c-26.2,0-52.3,0.1-78.5-0.1
			c-4.3,0-5.6,1-5.7,5.5c-0.5,24.1,1.6,48.2,1.1,72.4c-0.1,3.8,1.6,4.3,4.8,4.3c26.2-0.1,52.3-0.2,78.5,0c4.2,0,4.9-1.6,4.9-5.2
			C1537.7,745.5,1537.8,738.3,1537.8,731z"/>
		<path class="st7" d="M1875.8,467.9c0-2.1-0.9-2.9-3-3c-4.7-0.3-8.9,0-11.9,4.4c-3.8,5.6-9.1,7.5-15.9,6.8
			c-6.1-0.6-12.3-0.1-18.5-0.1c-1.6,0-3.9-0.3-3.6,2.2c0.6,5.3-2.8,4.8-6.2,4.8c-40.5,0-81,0-121.5-0.1c-3.4,0-5.9,0.9-8.3,3.4
			c-9.2,9.4-18.3,19-28,27.9c-5.8,5.3-9.7,10.7-8.1,18.9c0.2,0.8,0,1.7-0.1,2.5c-0.1,0.7-0.7,1.2-1.4,1.1c-0.4,0-0.9-0.4-1.2-0.8
			c-1.5-2.3,0.2-15.9,2.3-18c11.5-11.6,23.1-23,34.6-34.7c2.3-2.3,4.6-3.3,7.9-3.3c23.8,0.1,47.7,0.1,71.5,0.1c17,0,34,0,51,0
			c3.2,0,5.3-0.4,3.9-4.5c-0.6-1.8-0.4-3.9-0.4-5.9c0-51-0.1-102,0.1-153c0-4.1-0.7-5.8-5.4-5.7c-52.2,0.2-104.3,0.2-156.5,0
			c-4.2,0-5.3,1.2-5.3,5.3c0.2,26.3,0,52.7,0.2,79c0,3.4-1,4.9-4.3,6.1c-10.1,3.6-19.8,8.2-27.7,15.5c-5.7,5.3-10.4,11.4-10.2,20.2
			c0.1,10.5,5.9,18,12.1,25.5c2,2.4,3.4,0.7,4.8-0.7c6.4-6.4,12.7-12.8,19.1-19.1c1-1,1.9-3.4,3.9-1.3c1.8,1.8-0.4,2.6-1.3,3.5
			c-27.5,27.6-55.1,55.2-82.7,82.8c-1.5,1.5-3,2.4-5.2,2.3c-39.7-0.1-79.3,0-119-0.1c-1.2,0-3.2,0.5-3.2-1.3
			c-0.1-2.4,2.1-1.5,3.4-1.6c10.1-0.7,20.2-1.4,30.4-1c2.9,0.1,3.5-0.5,3-3.7c-2.6-17.3-10.6-31-31.2-33.1c-4.7-0.5-5-2.4-5.1-6.2
			c-0.6-26.8,1.3-53.6,1.2-80.4c0-3.7-1-4.8-4.8-4.8c-17.2-0.3-32.3,10.9-32.3,31.5c0,2.8-0.1,4.7-3.9,4.7
			c-20.7-0.1-41.3-0.1-62-0.1c-3.7,0-5.3-1.5-5.2-5.4c0.2-8.8,0-17.7,0.1-26.5c0-2.9-0.7-4.2-3.9-4.2c-7.9,0-14.6,2.6-20.4,7.8
			c-7.2,6.5-8.7,15.4-9.7,24.4c-0.3,2.6-0.6,3.9-3.6,3.9c-19.2-0.1-38.3-0.1-57.5-0.1c-3.4,0-5.1-1.4-5-5.1c0.2-8.3-0.2-16.7,0.2-25
			c0.2-4.1-1.3-5-5.1-5c-12.3,0.2-23.6,7.8-27.5,19.4c-1.4,4.2-2,8.7-2.4,13.1c-0.2,2.9-1.4,3.6-4,3.6c-19.5-0.1-39-0.1-58.5,0
			c-4.3,0-5.8-1.7-5.7-6c0.3-8.7,0-17.3,0.1-26c0-3-0.8-4.2-3.9-4.1c-9.1,0.2-17.3,2.6-23.9,9.3c-5.9,5.9-8.6,13.3-10.2,21.2
			c-0.7,3.1-1.9,4.8-5.6,4.6c-6.8-0.4-13.6,0.4-20.4,0.7c-12.1,0.6-24.3,0.1-36.5,0.3c-3.5,0.1-4.6-1.1-4.5-4.6
			c0.2-8.8,0-17.7,0.1-26.5c0-2.5-0.4-4.5-3.1-4.8c-8.8-1.2-21.5,1.1-26.4,11.7c-2.9,6.3-4.9,12.8-4.5,19.7c0.3,4.5-1.3,5.5-5.6,5.5
			c-12,0.1-23.9-1-35.9-1.1c-42.3-0.1-84.7-0.1-127-0.1c-9.5,0-9.3,0-9.6-9.4c-0.3-8.5-3.7-15.2-11.9-19.2c-6-2.9-12.3-2.3-18.6-2.5
			c-3.6-0.1-4.6,1.5-4.5,4.8c0.1,6.8-0.3,13.7,0.1,20.5c0.3,4.7-1.3,5.8-5.8,5.8c-34,0.2-67.9-0.5-101.9-1c-3.5,0-4.7-1.5-5.3-4.4
			c-3.9-17.7-15.2-27.2-32.9-30c-3.8-0.6-4.3,0.3-4.2,3.5c0.1,8.8,0.1,17.7,0,26.5c0,1.2,0.5,3-1.6,3c-1.6,0-1.4-1.6-1.4-2.7
			c0.1-7.8-1.4-15.5-1.1-23.4c0.4-10,1.7-19.9,1.1-29.9c-0.3-5.1-0.9-10.3-0.9-15.4c-0.1-19.8-0.1-39.7,0-59.5
			c0-3.6-0.9-4.9-4.7-4.9c-65.5,0.1-131,0.1-196.5,0c-4.2,0-5,1.4-4.9,5.2c0.2,20.1,0.1,40.2,0.1,60.2c0,11.8,0.1,23.7,0,35.5
			c-0.2,11.6,0.5,23.2,0.2,34.9c-0.5,15.8,0,31.7-0.2,47.5c0,3.6,0.9,4.9,4.7,4.9c31.7-0.1,63.3-0.1,95,0c3.1,0,4.2-0.7,4.5-4.1
			c1.8-21.4,14.6-34.3,35.5-35.9c2.6-0.2,3.5-1.1,3.4-3.6c0-4.7-0.9-9.3-0.9-13.9c-0.1-21.6-0.4-43.3-1.1-64.9
			c-0.3-9.5,0.7-19.1-0.3-28.5c-1.1-11-0.3-21.9-0.7-32.9c0-1.2-0.5-3,1.6-3c1.6,0,1.4,1.7,1.3,2.7c-0.6,7.7,1,15.2,1.1,22.9
			c0.2,14.1,0.3,28.3,0.6,42.4c0.4,25.8,1.5,51.6,1.4,77.4c0,3.2-0.9,4.3-4.2,4.4c-6.7,0.2-13.2,1.6-18.9,5.4
			c-9.3,6-13.6,14.8-15.3,25.6c-0.8,5.5,0.4,6.2,5.2,6c6.3-0.3,12.7,0,19-0.1c2.9-0.1,4.3,0.7,4.1,3.9c-0.8,17.5,1.2,34.9,0.9,52.4
			c0,1.7,1.2,4.6-2.1,4.5c-2.8-0.1-1.8-2.8-1.8-4.4c-0.1-8.8-0.1-17.7,0-26.5c0-2.9-0.4-4.2-4-3.5c-14.8,3.1-23.7,11.7-26.9,26.6
			c-1.9,8.9-1.9,9.1-11.4,8.9c-3.7,0-4.9,0.9-4.9,4.8c0.2,14.5,0.2,29,0,43.5c0,3.6,0.8,4.9,4.7,5c9.2,0.2,9.2,0.4,11,9.2
			c0.2,1,0.2,2,0.4,3c3.1,16.7,12.7,25.2,29.4,26.8c3.3,0.3,4.8-0.6,4.7-4.3c-0.2-9-0.1-18-0.1-27c0-1.2,0-2.3,0-3.5
			c0-0.8,0.2-1.7,1.2-1.9c1.4-0.2,1.6,0.8,1.7,1.9c0.1,0.8,0,1.7,0,2.5c0,16.5-0.1,33,0.1,49.5c0.1,4.2-1.6,4.9-5.2,4.9
			c-43.8-0.1-87.7-0.1-131.5,0c-4.6,0-5.5-1.4-5.5-5.7c0.2-24.8,0-49.7,0.2-74.5c0-3.4-0.5-5.1-4.6-5c-26,0.2-52,0.1-78,0
			c-3.5,0-4.6,1-4.6,4.5c0.2,10,0.1,20,0,30c0,1.5,0.9,4-1.4,4.1c-2.5,0.1-1.5-2.5-1.5-3.9c-0.1-27.5-0.1-55,0-82.5
			c0-1.3-0.8-3.6,1.3-3.7c2.6-0.1,1.6,2.4,1.6,3.8c0.1,13.2,0.2,26.3,0,39.5c-0.1,4.1,1.1,5.4,5.3,5.3c25.5-0.2,51-0.2,76.5,0
			c4.1,0,5.4-1,5.4-5.2c-0.2-24.8-0.2-49.7,0-74.5c0-4.6-1.5-5.5-5.7-5.4c-25.5,0.2-51,0.1-76.5,0.1c-1.3,0-2.7,0-4-0.1
			c-0.9,0-1.7-0.5-1.6-1.5c0-1,0.8-1.4,1.7-1.4c1.3-0.1,2.7-0.1,4-0.1c25.7,0,51.3-0.1,77,0.1c3.9,0,5.1-1,5.1-5
			c-0.2-17.7-0.2-35.3,0-53c0.1-4.4-1.6-5.2-5.5-5.1c-25,0.2-50,0.1-75,0.1c-1.2,0-2.3,0-3.5,0c-1.1-0.1-2.7,0.3-2.8-1.3
			c-0.1-2.1,1.7-1.5,3-1.6c1.2-0.1,2.3,0,3.5,0c25.2,0,50.3-0.1,75.5,0.1c3.8,0,4.8-1.1,4.8-4.8c-0.2-18-0.2-36,0-54
			c0-4.1-1-5.4-5.3-5.4c-25.3,0.2-50.7,0.1-76,0.1c-1.2,0-2.3,0.1-3.5,0c-1.2-0.1-3.1,0.4-3-1.6c0.1-1.9,2-1.3,3.2-1.4
			c1.2-0.1,2.3,0,3.5,0c25.3,0,50.7-0.1,76,0.1c4,0,5.1-1.2,5-5.1c-0.2-14.8-0.3-29.7,0-44.5c0.1-4.4-1.1-5.6-5.5-5.6
			c-31.3,0.2-62.7,0.1-94,0.1c-17,0-34,0-51,0c-2.9,0-5-0.2-4.6-3.9c0.3-2.4-1-3.2-3.3-3.1c-12.5,0.1-25,0.1-37.5,0
			c-2.4,0-3.3,0.9-3.2,3.3c0,2.3,1.2,2.8,3.2,2.8c2-0.1,4,0,6,0c6.8,0,6.8,0,6.8,6.6c0,42.2,0.1,84.3-0.1,126.5c0,4.9,1.4,6.2,6.2,6
			c9.7-0.4,19.3-0.1,29-0.1c1.3,0,3.6-0.7,3.6,1.5c0,2.1-2.2,1.5-3.6,1.5c-11,0.1-22,0-33,0c-1.6,0-3.3,0.4-4.2-1.7
			c-0.8-1.8-2.6-1.2-4-1.2c-49.8,0-99.7,0-149.5-0.1c-3.6,0-4.5,1.3-4.4,4.7c0.2,8.8,0.3,17.7,0,26.5c-0.1,4.1,1.3,5.5,5.1,4.9
			c3.9-0.6,5.1,1,5.1,5c-0.2,23,0,46-0.2,69c0,3.8,0.9,5.1,5,5.1c47-0.1,94-0.1,141,0c4.3,0,5.2-1.5,5.2-5.4
			c-0.2-18.5-0.1-37,0-55.5c0-1.3-0.8-3.6,1.3-3.7c2.6-0.1,1.6,2.4,1.6,3.8c0.1,42.8,0,85.7,0.1,128.5c0,2.7-0.4,4.1-3.7,4.4
			c-17.5,1.7-28.3,11.5-33.6,28.1c-1.1,3.5-0.6,4.9,3.3,4.8c5.5-0.2,11,0,16.5,0c4.2,0,8.3,0,12.5,0c1.1,0,2.7-0.1,2.7,1.5
			c0,1.6-1.5,1.5-2.6,1.5c-1.2,0-2.3,0-3.5,0c-21.3,0-42.7-0.1-64,0c-13.2,0.1-12.6-2.6-12.6,12.5c0,9.2,2.9,17.1,9.6,23.7
			c6.5,6.4,14.6,8.8,23.2,10.3c1.3,0.2,4.1-0.4,3.8,2.1c-0.3,2.3-2.8,1.5-4.2,1.3c-22.4-3.1-38.3-17.2-35.4-43.7
			c0.6-5.5,0.1-6.2-5.2-6.2c-30.2,0-60.3,0.1-90.5-0.1c-4.1,0-5.4,1.1-5.3,5.3c0.2,31.5,0.1,63,0.1,94.5c0,31.3,0.1,62.7-0.1,94
			c0,4,0.9,5.4,5.2,5.4c42.5-0.2,85-0.2,127.5,0c4.6,0,5.5-1.4,5.5-5.7c-0.1-45.2-0.1-90.3-0.1-135.5c0-1.3,0-2.7,0-4
			c0.1-1.2,0.4-2.4,1.9-2.5c1.5-0.1,1.9,1.1,2,2.4c0.1,2.3,0.3,4.7,0,7c-0.5,4.2,1.2,5.3,5.3,5.3c26.8-0.2,53.7,0,80.5-0.2
			c4,0,5.5,1.3,6.3,5c2.4,10.1,7.5,18.3,16.7,23.6c5.7,3.3,11.9,4.8,18.4,5.7c5.8,0.8,5.9,1.1,5.8-4.7c-0.4-28.3,0.6-56.6,1-84.9
			c0-1,0-2,0.1-3c0.1-0.7,0.5-1.3,1.2-1.3c1-0.1,1.5,0.6,1.6,1.5c0.1,1.3,0.1,2.7,0.1,4c0,15.5,0,31,0,46.5c0,2.2-0.1,4.2,1.7,6
			c8.1,7.9,16.1,16,24,24c1.9,1.9,2.9,1.6,4-0.7c2.7-5.5,5.2-11.1,6.4-17.2c0.4-2.2,0.7-4.4,4.2-4.5c9.6-0.1,19.3-0.8,28.9-0.9
			c22.1-0.1,44.2-0.1,66.2,0c7,0,13.9-0.9,20.7-1.9c3.8-0.6,5.8,0.3,5.9,4.8c0.4,19.1,11.7,30.8,28.4,35.7c3.1,0.9,4.7,0.1,4.6-3.5
			c-0.2-9.5-0.1-19,0-28.5c0-1.2,0-2.3,0-3.5c0-0.8,0.2-1.7,1.2-1.9c1.4-0.2,1.6,0.8,1.7,1.9c0.1,1.2,0,2.3,0,3.5
			c0,9.8,0,19.7,0,29.5c0,1.8-0.3,4.1,2.6,3.6c7.8-1.2,15.1-3.5,21.1-9.1c7.5-6.9,11.3-15.9,14.2-25.3c0.9-3,2.1-4.6,5.8-4.5
			c19.2,0.2,38.3,0.2,57.5,0c3.7,0,5,0.9,4.9,4.7c-0.3,9.5,0,19-0.1,28.5c0,3.3-0.1,5.3,4.6,4.1c4.6-1.2,8.9-2.6,12.8-5.2
			c10.6-7.1,15.3-18,18.5-29.7c0.9-3.2,2.5-4.4,5.6-4.4c18.8,0,37.7,0.1,56.5,0c3.5,0,4.2,1.4,4.1,4.5c-0.2,8-0.1,16-0.1,24
			c0,12.9,1.8,14,13.8,8.2c13.2-6.3,19.9-17.7,24-30.9c1.1-3.6,2.3-4.8,6-4.8c19,0.2,38,0.2,57,0c4.2,0,5.4,1.1,5.3,5.3
			c-0.3,10-0.1,20-0.1,30c0,1.7-0.6,4.1,2.6,3.4c4.8-1.1,9.8-1.9,14-4.7c10.5-7,15.8-17.2,18.3-29.1c0.7-3.4,2-4.9,5.9-4.9
			c19,0.2,38,0.2,57,0c4.3-0.1,5.3,1.5,5.2,5.5c-0.2,10.3-0.1,20.7-0.1,31c0,2.4,0.2,3.6,3.3,2.9c4.4-1,8.6-2.1,12.6-4.4
			c11.6-6.9,16.7-18.1,20-30.4c0.9-3.5,2.3-4.5,5.8-4.5c19.2,0.1,38.3,0.2,57.5,0c4.1,0,5.1,1.3,5,5.1c-0.2,10.7-0.1,21.3,0,32
			c0,1.6-0.8,4.3,2.4,3.6c5-1.1,10.1-1.9,14.5-4.9c10.6-7.3,16.2-17.8,19-29.9c0.8-3.4,2-4.9,5.9-4.9c19,0.2,38,0.2,57,0
			c4.3-0.1,5.3,1.4,5.2,5.4c-0.3,9.2,0,18.3-0.1,27.5c-0.1,3.3,1.1,4.8,4.3,4.1c5.9-1.2,11.4-3.4,16-7.6
			c7.6-6.9,11.9-15.5,13.7-25.4c0.7-3.7,2.3-5.1,6.3-5c18.8,0.2,37.7,0.2,56.5,0c4.1,0,5.5,1.1,5.4,5.3c-0.3,10-0.1,20-0.1,30
			c0,1.6-0.7,4.1,2.6,3.5c4.9-0.9,9.7-1.7,14-4.7c10.4-7.1,15.8-17.2,18.4-29.1c0.7-3.4,1.9-5,5.9-5c19.2,0.2,38.3,0.2,57.5,0
			c3.8,0,4.8,1.2,4.8,4.9c-0.2,9.8,0,19.7-0.1,29.5c0,2.7,0.8,4.3,3.7,3.6c5.7-1.3,11.1-3.3,15.5-7.5c7.1-6.8,11-15.3,12.8-24.8
			c0.8-4.2,2.3-5.7,6.8-5.6c15.8,0.3,31.7,0.1,47.5,0.1c6.8,0,6.8,0,6.8-6.6c0-25.8,0-51.7,0-77.5c0-8.7,0-8.7-8.5-8.9
			c-1.5,0-4.1,0.9-4.1-1.5c0-2.4,2.6-1.3,4.1-1.5c1-0.1,2,0,3,0c36,0,72,0,108,0.1c3.4,0,5.9-0.6,7.9-3.7c2.9-4.4,6.6-8.3,9.7-12.6
			c1.7-2.4,2.8-2.5,4.9-0.4c7.8,8,15.7,15.9,23.7,23.7c1.8,1.8,2.4,3.7,2.4,6.2c-0.1,23.7,0,47.3-0.1,71c0,1.7,1.2,4.7-2.2,4.5
			c-2.8-0.2-1.7-2.8-1.7-4.4c-0.1-17.8-1.1-35.7,0.3-53.5c1.1-14.8-2.6-26.1-14.6-34.8c-3.6-2.6-6.5-8.7-9.7-8.7
			c-3.8,0-6.1,6.1-8.7,9.8c-2.9,4.2-6.4,6-11.9,6c-31.5-0.4-63-0.1-94.5-0.2c-3.6,0-5,0.8-4.9,4.7c0.2,11.2,0.3,22.3,0,33.5
			c-0.1,4.2,1.4,5,5.2,4.9c26.3-0.1,52.7-0.1,79-0.1c1.3,0,2.7,0,4,0.1c0,0,0.1,0,0.1,0v0h4v58h-0.2c0,3.3,0,6.7-0.1,10
			c0,2.7-0.1,4,3.8,4.2c19.5,0.9,31.6,11.4,33.2,31.7c0.3,4,1.4,6.5,6.2,6.1c15.7-1.2,31.4-2.1,47.1-3c2.7-0.2,2.7-1.8,2.7-3.8
			c0.3-11.3,0.6-22.6,1-33.9c0.3-10.5,0.3-20.9,0.7-31.4c0.6-14.4,1.1-28.9,1.3-43.4c0.1-4.5-0.3-8.9,0.8-13.4
			c0.8-3-0.4-5.7-2.3-8.3c-6.8-9-13.1-18.3-19.8-27.4c-2.6-3.5-1.4-5.8,1.8-7.7c4.7-2.9,9.8-4,15.2-3.8c3.1,0.1,4.7-0.7,4.4-4.2
			c-0.6-6.5,0.8-12.9,0.9-19.4c0-2.5,0.8-3.7,3.5-3.5c13.8,0.7,27.6-1,41.4-1c3.3,0,4.3,1.1,4.3,4.3c-0.2,11.3,0.2,22.7-0.2,34
			c-0.1,4.6,1.2,5.9,5.8,5.8c42.2-0.2,84.3-0.2,126.5,0c4.5,0,5.9-1,5.9-5.7c-0.2-34.3-0.1-68.7-0.1-103c0-6.4,0-6.4,6.6-6.4
			c13.3,0,26.7,0,40,0c2.1,0,4.5,0.5,4.4-3C1875.7,492.6,1875.7,480.3,1875.8,467.9z"/>
	</g>
	<path class="st8" d="M1556.3,252c35.3,0,70.6,0,106,0c1.2,0,2.3,0,3.5,0c1.7,0,2.9,0.4,3,2.4c0,2-1.1,2.6-2.8,2.6
		c-4,0-8,0.3-12-0.1c-4.3-0.4-5.2,1.4-5.2,5.4c0.1,40.5-0.2,81,0.3,121.5c0.1,9-0.8,14.9-10.9,17.9c-10.2,3-19.1,9.7-25.6,18.4
		c-9.5,12.8-8.1,22.6,0.4,36.3c1.5,2.4,3.4,4.6,5.4,6.4c3,2.7,2.7,4.6-0.1,7.3c-16.5,16.3-33,32.5-49.1,49.2
		c-5.4,5.6-10.7,8-18.6,7.8c-22.1-0.6-44.3-0.2-66.5-0.1c-3.5,0-5-0.4-5.5-4.7c-2.3-18.1-12.5-33.2-30.1-35.7
		c-6.6-0.9-7.1-3.7-6.8-8.8c1.6-27.9,0.1-55.9,1.3-83.8c0.9-22.5-0.4-45,0.9-67.4c1.2-20.6,0.4-41.3,0.8-61.9
		c0.1-3.5,2.4-7-0.6-10.5c-0.9-1,0.3-2.1,1.7-2.2c1.3-0.1,2.7,0,4,0C1485.4,252,1520.9,252,1556.3,252z"/>
	<path class="st8" d="M1824.8,735.5c0,34.7-0.1,69.3,0.1,104c0,4.5-1.3,5.5-5.6,5.5c-59.3-0.1-118.6-0.1-178,0c-4.3,0-5.8-1-5.6-5.5
		c1.1-19.6,0.5-39.3,1.4-58.9c0.7-15-0.2-30,0.9-44.9c0.8-10.5,0.8-20.9,0.8-31.4c0-3.5,2.2-4,4.6-4.8c12.2-4.1,21.6-11.5,27.2-23.3
		c1.3-2.8,2.7-5.9,3-8.9c0.3-4,2.3-4.5,5.6-4.5c7.7,0,7.7-0.1,7.7-7.6c0-8,0.2-16-0.1-24c-0.1-4,0.9-5.4,5.2-5.4
		c42.7,0.2,85.3,0.2,128,0c4.1,0,5,1.4,5,5.2C1824.7,665.9,1824.8,700.7,1824.8,735.5z"/>
	<path class="st8" d="M626.9,344.5c0-15.7,0.8-31.4-0.2-46.9c-1.2-19.8-0.2-39.6-0.8-59.3c-0.1-4.2,1.2-5.4,5.3-5.3
		c9.5,0.3,19,0.2,28.5,0c3.2-0.1,4.3,0.9,4.4,4.2c0.1,10.8,0.3,10.8,11,10.8c31.5,0,62.9,0,94.4,0c5.8,0,5.7,0,4.7,5.8
		c-0.3,1.8-0.2,3.6-0.2,5.5c0,55.6-0.1,111.2,0.1,166.9c0,4.4-1,6-5.7,5.9c-32.1-0.8-64.2-1.5-96.3-1.1c-2.7,0-4.3-0.7-5-3.5
		c-4.7-18.8-17.4-28.7-36.2-31.3c-3.5-0.5-3.9-1.8-3.9-4.7C627,375.8,626.9,360.1,626.9,344.5C626.9,344.5,626.9,344.5,626.9,344.5z
		"/>
	<path class="st8" d="M923.9,331.7c0,31.1-0.1,62.3,0.1,93.4c0,4.9-1.5,6-6.2,6c-32.1-0.2-64.3-0.2-96.4,0c-3.9,0-5.7-0.9-6-5
		c-0.4-4.6-1.2-9.1-3.5-13.3c-3.9-7-10.3-10.3-17.7-11.6c-4.1-0.8-8.4-2.1-12.8-0.4c-2.3,0.9-3.7-0.4-3.6-3.1c0.1-4.3,0-8.7,0.1-13
		c0-43.3,0.1-86.6-0.1-129.9c0-4.5,1.1-5.7,5.8-5.9c32.9-1.5,65.9-0.6,98.8-0.8c4.1,0,5.6-1.2,5.5-5.4C887.9,232,888,232,898.7,232
		c6.7,0,13.3,0.2,20-0.1c4.2-0.2,5.3,1.1,5.3,5.3C923.8,268.7,923.9,300.2,923.9,331.7z"/>
	<path class="st8" d="M325.2,724.6c9.1,9.1,17.4,17.2,25.5,25.7c3.1,3.3,4.6,2.6,6.3-1.1c2.7-5.9,5.5-11.8,6.9-18.1
		c0.7-2.9,1.9-4.1,5-4.2c20.1-0.2,40.2-0.6,60.3-1c5-0.1,9.9,0.4,14.9,1c2.2,0.2,2.9,1.1,2.8,3.1c-0.1,1,0,2,0,3
		c0,52-0.1,103.9,0.1,155.9c0,4.7-1.1,6.2-6,6.1c-37-0.2-73.9-0.2-110.9,0c-3.6,0-5.3-0.6-5.2-4.9c0.1-54,0.1-107.9,0.1-161.9
		C325,727.5,325.1,726.7,325.2,724.6z"/>
	<path class="st8" d="M254.7,856.9c-20.5,0-41-0.1-61.4,0.1c-4,0-5.5-0.9-5.4-5.2c0.2-40,0.1-79.9,0-119.9c0-3.9,1-5.1,5-5.1
		c26.1,0.2,52.3,0.2,78.4,0c3.3,0,4.6,1.1,5.6,4.1c6.5,19.5,20.7,30.2,41.1,30.9c3,0.1,4.1,0.9,4,4c-0.1,29-0.1,57.9,0,86.9
		c0,3.9-1.8,4.2-4.9,4.2C296.4,856.9,275.6,856.9,254.7,856.9z"/>
	<path class="st8" d="M156.7,553c23.3,0,46.6,0.1,69.9-0.1c4.5,0,5.6,1.3,5.5,5.6c-0.2,18.6-0.1,37.3-0.1,55.9
		c0,2.9-0.4,4.2-3.9,4.7c-18.4,2.6-29,14.2-33.9,31.4c-1,3.4-2.3,4.5-5.7,4.5c-34.3-0.1-68.6-0.1-102.9,0c-3.4,0-4.6-0.9-4.6-4.5
		c0.1-31,0.1-61.9,0-92.9c0-3.8,1.1-4.8,4.8-4.8C109.4,553,133,553,156.7,553z"/>
	<path class="st8" d="M1388,293c15.7,0,31.3,0.1,47-0.1c3.6,0,4.9,0.8,4.9,4.7c-0.2,23,0.2,46-0.3,69c-0.2,7.9-0.8,15.9-0.8,23.9
		c0,2.5-0.9,3.3-3.4,3.6c-5.9,0.6-11.7,1.5-17.3,4.1c-10.5,5-16.2,13.3-18.3,24.5c-0.3,1.8-0.9,3.6-1,5.4c-0.1,2.5-1.4,3-3.6,3
		c-19,0-38-0.1-57,0c-3.5,0-3.6-1.9-3.6-4.5c0.1-12,0.6-23.9,0.8-35.9c0.6-30.8,0.3-61.6,0.1-92.5c0-4.1,1.1-5.4,5.3-5.3
		C1356.7,293.1,1372.4,293,1388,293z"/>
	<path class="st8" d="M832.9,795.9c0,21.5-0.1,43,0.1,64.4c0,4.2-0.8,5.7-5.4,5.7c-30.5-0.2-60.9-0.1-91.4-0.1
		c-5.4,0-5.9-0.6-4.8-5.6c1.2-5.3,0.5-10.6,0.6-15.9c0.1-12.5,0.7-25-0.2-37.4c-0.9-12.1-0.3-24.2-0.8-36.4
		c-0.1-3.6,0.4-5.3,4.8-5.9c17.3-2.7,27.6-14.1,34-29.5c3.8-9.1,3.6-9.2,13.4-9.2c15,0,30,0.1,44.9-0.1c4.1-0.1,5,1.3,5,5.1
		C832.8,752.6,832.9,774.3,832.9,795.9z"/>
	<path class="st8" d="M573.5,865.9c-15.2,0-30.3-0.1-45.5,0.1c-3.7,0-5.2-0.7-5.2-4.9c0.2-22.8-0.2-45.6,0.3-68.5
		c0.2-7.8,0.8-15.6,0.8-23.4c0-2.2,0.7-3.1,3.1-3.4c18.4-2.4,29-13.8,35.2-30.4c3.7-10,0.9-8.4,11.9-8.5c15.7-0.1,31.3,0.1,47-0.1
		c3.7,0,4.9,0.9,4.9,4.7c-0.2,12,0.5,24-0.2,36c-1.8,31.1-0.4,62.2-0.8,93.3c0,3.9-1,5.2-5,5.1C604.5,865.8,589,865.9,573.5,865.9z"
		/>
	<path class="st8" d="M1039.9,796.1c0,21.5-0.1,43,0.1,64.5c0,4-0.8,5.5-5.2,5.5c-30-0.2-60-0.2-90,0c-4,0-5-1.2-5-5.1
		c0.1-30,0.1-60,0-90c0-3.4,0.8-4.7,4.4-5.4c19.3-3.9,28.9-17.6,34.2-35.1c1.1-3.7,2.7-4.6,6.2-4.6c16.7,0.1,33.3,0.2,50,0
		c4.1-0.1,5.4,1,5.4,5.2C1039.8,752.7,1039.9,774.4,1039.9,796.1z"/>
	<path class="st8" d="M1026.9,363.3c0-21,0.1-42-0.1-63c0-4,0.9-5.5,5.2-5.4c12.3,0.3,24.7-0.2,37,0.2c18.3,0.5,36.6-1.5,54.9-1.2
		c3.9,0.1,5.1,1.1,5.1,5.1c-0.2,30.8-0.1,61.6-0.1,92.5c0,2.9-0.2,4.7-3.9,4.6c-21.2-0.5-32.2,12.5-36.8,29.8
		c-1.1,4.2-2.7,5.3-6.7,5.2c-8.3-0.3-16.7,0.1-25-0.1c-8.3-0.3-16.5,1.5-24.9,1.2c-3.7-0.1-4.8-1.1-4.8-4.8
		C1027,405.9,1026.9,384.6,1026.9,363.3z"/>
	<path class="st8" d="M1348.8,795.8c0,21.5-0.1,43,0.1,64.5c0,4.2-0.8,5.8-5.4,5.7c-29.5-0.2-59-0.2-88.5,0c-4.2,0-5.3-1.2-5.3-5.3
		c0.2-30.2,0.1-60.3,0-90.5c0-3.5,0.5-4.9,4.6-5.6c19-3.2,28.4-16.4,33.1-33.7c1-3.8,2.3-5.1,6.3-5.1c16.7,0.2,33.3,0.2,50,0
		c3.9,0,5.2,1,5.1,5C1348.7,752.5,1348.8,774.2,1348.8,795.8z"/>
	<path class="st8" d="M935.9,796c0,21.7-0.1,43.3,0.1,65c0,4-1.2,5-5.1,5c-29.7-0.1-59.3-0.1-89,0c-3.9,0-5.1-1-5.1-5
		c0.2-27.2,0.1-54.3,0.1-81.5c0-4,1.5-7.8,1-11.9c-0.2-1.9,0.9-2.4,2.7-2.7c19.7-3.2,29.3-16.6,34.1-34.5c0.8-3.1,1.9-4.5,5.3-4.5
		c17.2,0.1,34.3,0.2,51.5,0c3.6,0,4.5,1.3,4.5,4.6C935.8,752.3,935.9,774.2,935.9,796z"/>
	<path class="st8" d="M1143.9,796.9c0,21.3-0.1,42.6,0.1,64c0,3.8-0.9,5.1-5,5.1c-30.1-0.2-60.3-0.2-90.4,0c-3.8,0-4.7-1.2-4.7-4.9
		c0.1-29.8,0.1-59.6,0-89.4c0-3.1,0.5-4.4,4.2-5c19.8-3.3,29.5-17.1,34.6-34.9c1.1-3.9,2.7-5,6.4-4.9c16.5,0.2,33,0.2,49.5,0
		c4.6-0.1,5.5,1.4,5.5,5.7C1143.8,754,1143.9,775.5,1143.9,796.9z"/>
	<path class="st8" d="M1131.9,362.8c0-21.2,0.1-42.3-0.1-63.5c0-4,0.9-5.5,5.2-5.4c30,0.2,60,0.2,90,0c4,0,5,1.2,5,5.1
		c-0.1,30.3-0.1,60.6,0,91c0,3.3-0.4,4.9-4.4,5.3c-5.9,0.5-11.8,1.8-17.1,4.7c-11,6.1-15.3,16.2-16.4,27.9c-0.3,3.3-1.2,4.2-4.4,4.2
		c-17.8-0.1-35.7-0.2-53.5,0c-3.8,0-4.3-1.6-4.3-4.8C1131.9,405.8,1131.9,384.3,1131.9,362.8z"/>
	<path class="st8" d="M1245.9,795.8c0,21.6-0.1,43.3,0.1,64.9c0,4.2-1.2,5.3-5.3,5.3c-29.1-0.2-58.3-0.2-87.4,0
		c-4.6,0-5.5-1.4-5.5-5.7c0.2-30.1,0.2-60.3,0-90.4c0-4.3,1.4-5.5,5.6-6.2c14-2.1,22.4-11.3,28.2-23.4c0.9-1.9,1.7-4,2.2-6.1
		c2.5-9.5,0.4-8.3,11.1-8.3c15.1-0.1,30.3,0.1,45.4-0.1c4.3-0.1,5.7,1,5.6,5.5C1245.7,752.8,1245.9,774.3,1245.9,795.8z"/>
	<path class="st8" d="M726.9,795.2c0,21.7-0.1,43.3,0.1,65c0,3.7-0.9,4.9-4.7,4.9c-29.6-0.1-59.3-0.1-88.9,0c-3.6,0-4.5-1.2-4.5-4.6
		c0.1-30.3,0.1-60.6,0-90.9c0-2.9,0.4-4.2,3.9-4.7c17.7-2.7,27.1-14.8,33-30.3c3.7-9.4,3.4-9.5,13.5-9.5c14.2,0,28.3,0.2,42.5-0.1
		c4.3-0.1,5.3,1.4,5.2,5.4C726.8,751.9,726.9,773.5,726.9,795.2z"/>
	<path class="st8" d="M927.9,362.4c0-21.5,0.1-43-0.1-64.5c0-4,1.2-5,5.1-5c28.6,0.1,57.3,0.1,85.9,0c3.8,0,5.1,0.9,5.1,5
		c-0.2,31-0.2,62,0,92.9c0,4.3-1.3,5.6-5.4,5.2c-11.4-1.1-20.7,2.6-26.7,12.6c-3.1,5.2-4.9,10.9-4.9,17c0,4.5-1.2,6.6-6.3,6.5
		c-15.7-0.3-31.3-0.3-47,0c-4.4,0.1-6-1-5.9-5.7C928,405,927.9,383.7,927.9,362.4z"/>
	<path class="st8" d="M1331.8,343.8c0,15.2-0.1,30.3,0.1,45.4c0,3.2-0.5,4.5-4.2,4.9c-10.8,1.2-20.8,4.5-27,14.5
		c-3.5,5.6-5.1,11.9-5.7,18.3c-0.3,2.9-1,4-4.1,4c-17.3-0.1-34.6-0.1-51.9,0c-3.4,0-4.2-1.3-4.1-4.4c1.4-43.2,1-86.5,1-129.7
		c0-3.1,1.1-4,4.1-4c29.3,0.1,58.6,0.1,87.9,0c3.5,0,4.1,1.3,4.1,4.4C1331.8,312.8,1331.8,328.3,1331.8,343.8z"/>
	<path class="st8" d="M1445.8,795.9c0,21.6-0.1,43.3,0.1,64.9c0,3.8-0.8,5.2-5,5.1c-27.8-0.2-55.6-0.2-83.4,0
		c-3.7,0-4.8-1.1-4.8-4.8c0.1-30.6,0.1-61.3,0-91.9c0-2.8,0.5-4.9,3.7-5.3c15.9-2.1,23.9-12.9,29.3-26.5c0.6-1.5,1.5-3.1,1.5-4.7
		c0.1-6.5,3.9-7,9.2-6.9c14.5,0.3,29,0.3,43.4,0c5-0.1,6,1.5,6,6.2C1445.7,753.3,1445.8,774.6,1445.8,795.9z"/>
	<path class="st8 bathroom bathroom-2" d="M1514.1,844.9c-19.8,0-39.6-0.1-59.4,0.1c-3.6,0-4.9-0.8-4.9-4.7c0.2-25,0.1-50,0-74.9c0-3.6,1.2-4.5,4.6-4.5
		c26.3,0.1,52.6,0.1,78.9,0c3.4,0,4.9,0.8,4.6,4.5c-0.3,4-0.1,8,0,12c0,1.2-0.5,3.2,1.3,3.2c2.4,0.1,1.6-2.1,1.6-3.4
		c0.1-7.8,0.2-15.7,0-23.5c-0.1-3.7,1-4.9,4.8-4.8c18.9,0.3,27.5,12.3,29.3,29.9c0.3,3.2-1.5,7.1,3.4,8.8c1.2,0.4,0.6,2.4,0.6,3.7
		c0,16.3-0.1,32.6,0.1,49c0,3.8-1.2,4.8-4.9,4.7C1554,844.8,1534.1,844.9,1514.1,844.9z"/>
	<path class="st8" d="M449.9,810.9c0-26.3,0.1-52.6-0.1-79c0-3.8,0.9-4.9,5-5.2c8-0.6,15.9-0.7,23.9-0.9c3.3-0.1,4.9,0.9,5.3,4.4
		c1.7,18.2,14.6,30.2,30.7,34.5c4.2,1.1,5.5,2.8,5.4,7c-0.3,11.8,0.6,23.7-0.3,35.5c-1.4,18.1-0.5,36.2-0.7,54.4
		c-0.1,3.7-1.4,4.5-4.7,4.4c-8.5-0.2-17-0.1-25.5-0.1c-6.6,0-6.9,0.3-6.9,6.7c0,5.8-0.2,11.7,0.1,17.5c0.2,3.6-0.8,5.1-4.7,4.9
		c-7.5-0.3-15-0.3-22.5,0c-4.1,0.2-5-1.3-5-5.1C450,863.6,449.9,837.3,449.9,810.9z"/>
	<path class="st8 bathroom bathroom-3" d="M484,488c20.3,0,40.6,0.1,61-0.1c3.9,0,5.4,0.9,5.1,5c-0.3,4-0.1,8-0.1,12c0,2-0.7,2.8-2.8,3.1
		c-18.6,3.2-27.7,12.1-31.2,30.5c-0.8,4-2.3,5.8-6.8,5.6c-9.2-0.4-9.2-0.1-9.2,9.1c0,5.3-0.1,10.7,0,16c0.1,2.8-0.9,3.8-3.7,3.8
		c-25.2-0.1-50.3-0.1-75.5,0c-3.2,0-3.9-1.3-3.9-4.2c0.1-25.5,0.1-51,0-76.5c0-3.6,1.2-4.5,4.6-4.5C442.3,488,463.1,488,484,488z"/>
	<path class="st8 bathroom bathroom-4" d="M484.8,657.9c-20.8,0-41.6-0.1-62.4,0.1c-4.5,0.1-5.5-1.3-5.5-5.6c0.2-23.8,0.2-47.6,0-71.4
		c0-3.8,0.9-5.2,5-5.1c24.5,0.2,48.9,0.2,73.4,0c3.8,0,4.9,1.1,4.7,4.8c-0.3,5.8,0.1,11.7-0.1,17.5c-0.1,3.6,0.9,5.7,4.9,5.8
		c3.1,0.1,6.9-1.3,9.2,0.6c2.3,1.9,1.2,5.9,1.8,8.9c2.7,15.3,11.7,24.4,26.6,28c0.8,0.2,1.6,0.2,2.4,0.4c2.6,0.6,6.8-1.6,7.6,1.4
		c1.1,4.2,0.7,8.9,0.1,13.3c-0.3,2.2-3.1,1.2-4.8,1.2C526.7,658,505.8,657.9,484.8,657.9z"/>
	<path class="st8" d="M1682.8,621.5c0,11.3-0.1,22.6,0.1,34c0.1,3.5-1,4.6-4.5,4.6c-11.1-0.2-22.3-0.1-33.5-0.1
		c-1.7,0-4.4,0.5-4-2.3c1.9-11.5-6.5-18.1-12-26.1c-3.1-4.5-6.2-9-9.6-13.3c-2.5-3.2-1.3-4.8,1.8-5.9c4.7-1.6,9.6-2.5,14.6-2.3
		c3,0.1,4-0.9,4.1-4c0.2-6.6,1.4-13.2,0.9-19.9c-0.2-2.3,0.9-3.3,3.2-3.2c11.8,0.1,23.6,0.1,35.5,0c3.2,0,3.4,1.7,3.4,4.1
		C1682.8,598.5,1682.8,610,1682.8,621.5z"/>
	<path class="st8" d="M1581.8,814.9c0-8.3,0.1-16.6-0.1-25c-0.1-3,0.9-3.9,4-4.1c15-0.8,30.1-1.7,45.1-2.8c3.3-0.2,3,1.7,3,3.8
		c0,8.1-0.3,16.2-0.8,24.4c-0.6,9.8-0.3,19.6-0.1,29.4c0.1,3.2-0.9,4.4-4.2,4.3c-14.3-0.2-28.6-0.1-42.9,0c-3.1,0-4-1.2-3.9-4.1
		C1581.9,832.2,1581.8,823.6,1581.8,814.9z"/>
	<path class="st8" d="M1638.8,694.8c1.8-8.8,0.8-16.6,1-24.4c0.2-7,0.5-7.4,7.3-7.4c6.8,0,13.7,0,20.5,0c2.7,0,3.6,0.9,2.9,3.6
		c-4.1,14.8-13.1,25-28,29.7C1639.7,697.1,1638.6,696.7,1638.8,694.8z"/>
	<path class="st9" d="M660.9,622.5c0,16-0.1,32,0.1,48c0,3.5-1.1,4.6-4.5,4.5c-9.8-0.2-19.7,0-29.5-0.1c-1.3,0-3.6,0.7-3.6-1.4
		c-0.1-2.2,2.2-1.5,3.5-1.5c8.5-0.1,17-0.3,25.5,0.1c4.8,0.2,5.8-1.5,5.7-5.9c-0.2-20.3-0.1-40.7-0.1-61c0-37.1-0.1-74.2,0.1-111.2
		c0-4.9-1.4-6.2-6.1-6c-8.6,0.4-17.3,0.1-26,0.1c-1.3,0-3.6,0.7-3.6-1.4c0-2.2,2.2-1.5,3.6-1.5c10.3-0.1,20.7,0.1,31-0.1
		c3.5-0.1,4.2,1.3,4.1,4.4c-0.2,8.5,0,17-0.1,25.5c-0.1,3.3,0.5,4.3,4.2,3.4c10.1-2.7,19.5-6.6,27.8-12.9c3.9-3,6.7-7,8.5-11.5
		c0.9-2.4,1.8-3.3,4.3-1.9c12.7,6.9,25.4,13.8,38.2,20.6c2.4,1.3,1.9,2.9,1.4,5c-3.2,12.3-4.6,24.7-2.4,37.4
		c2.8,16.8,12,28.7,27.6,35c13.4,5.4,27.4,7.4,41.9,5c16-2.6,28.2-14.6,32.5-32.5c3.8-16,3.1-32.2-0.1-48.2
		c-0.7-3.5-0.1-5.5,2.7-7.6c10-7.5,20.9-13.5,31.4-20.1c3.1-2,5.1-1.5,7.3,1.7c6.9,9.9,15.7,17.8,27.2,21.6
		c16.1,5.4,30.8,1.5,44.2-8.2c3.9-2.8,7.5-6,11.2-9.1c1.3-1.1,2.3-1.6,3.9-0.7c5.7,3.1,11.4,6.1,17.2,9.1c2,1,1.8,2.1,0.8,3.9
		c-5.3,9.4-10.1,19.1-15.6,28.4c-1.9,3.1-1.5,5.3,0,8.1c5.2,9.7,10,19.6,15.2,29.2c1.9,3.4,1.4,4.8-2.4,6c-6.3,2-12.5,4.4-18.7,6.8
		c-2.2,0.8-3.6,0.6-4.9-1.6c-9.9-16.1-19.3-20.3-38.5-16.8c-13.2,2.4-25.7,7-35.3,17c-7.6,7.9-11.2,17.4-11.6,28.3
		c-0.5,11.8,0.9,23.2,5.7,34c1.1,2.5,0.2,3.9-1.9,5.2c-11.2,6.8-22.6,13.4-33.6,20.5c-3.6,2.3-5.4,1.5-7.9-1.2
		c-6.3-6.9-13.2-13.1-21.8-17.2c-13-6.2-25.9-5.9-38.9,0c-12.7,5.8-23.5,14.2-32.7,24.7c-1.6,1.8-2.8,1.4-4.3,0.4
		c-11.2-7.2-22.2-14.5-33.4-21.6c-2.1-1.4-2.1-2.8-1.8-5.1c3-17.7,2.5-35.1-4.9-51.7c-6.8-15.3-19.4-23.6-35.3-27.3
		c-7.2-1.7-7.2-1.4-7.2,5.9C660.9,592.2,660.9,607.3,660.9,622.5z"/>
	<path class="st9" d="M1368.8,532.6c-0.9-16.3,1.1-32.6,1-48.9c0-1.3-0.7-3.6,1.6-3.4c2.1,0.2,1.3,2.4,1.3,3.7
		c-0.1,16.3,0,32.6-0.8,48.9c-0.8,15.5,0.5,31-0.3,46.5c-1.2,23.3-0.3,46.6-1,69.9c-0.2,6.9-0.7,13.9-0.8,20.9
		c0,1.3,0.7,3.5-1.6,3.4c-1.9-0.1-1.3-2-1.3-3.3c-0.1-6.8-0.1-13.7,0-20.5c0-2.9-0.5-4.5-4-3.4c-9.4,2.9-18.5,6.1-26.5,12.2
		c-4.4,3.3-7.9,7.1-9.6,12.3c-0.8,2.2-1.4,3.1-4.2,1.6c-12.2-6.8-24.6-13.2-37-19.6c-2.9-1.5-3.8-3.1-2.7-6.2
		c2.7-7.4,3-15.2,3.9-22.9c2.6-23.3-12.3-45.2-35.1-51.7c-11.8-3.3-23.8-4.6-35.9-2.3c-17.7,3.4-29.2,15.6-32.9,33.7
		c-3.2,15.7-2.5,31.3,0.7,46.9c0.6,3,0.2,5.1-2.6,7.3c-10.4,8.1-22,14.4-33.3,21.1c-3.4,2-4.3-0.6-5.4-2.2
		c-5.4-8.1-12.4-14.1-20.8-18.9c-15.1-8.6-30-7.1-44.5,0.9c-6.3,3.5-12.5,7.6-17.4,13.2c-1.5,1.7-2.8,1.8-4.7,0.7
		c-4.9-2.8-9.9-5.5-15-8c-2.9-1.4-3.5-3.1-1.9-5.9c5-9,9.7-18.2,14.9-27.1c1.9-3.3,2-5.7,0.1-9.1c-5.5-10.1-10.5-20.4-15.8-30.6
		c-1.1-2.2-0.3-2.8,1.6-3.4c7-2.5,14.1-5,21.1-7.6c1.8-0.7,3-0.9,3.9,1.3c5.6,13.8,19.8,21.4,37.5,17.6c11.4-2.4,22.4-5.8,31.8-13.3
		c8.7-6.9,13.4-15.8,15.6-26.4c2.7-13.3,0.3-26.1-4.6-38.4c-1.5-3.9-0.6-5.8,2.8-7.9c10.7-6.3,21.4-12.7,31.9-19.5
		c3.5-2.3,5.9-1.7,8.6,0.7c6.2,5.5,12.8,10.5,19.9,14.9c9.4,5.7,19.1,10.7,30.5,11.1c11.6,0.4,19.9-5.4,26.9-13.7
		c4.7-5.6,9.1-11.4,13.6-17.2c2.5-3.3,4.9-3.4,8.4-1.1c9.5,6.4,19.2,12.5,29.1,18.3c4.3,2.6,4.4,5.8,3.9,10.1
		c-2,20.2-1.4,39.9,11.1,57.2c8.2,11.4,19.9,16.6,33.2,19.3c3,0.6,4.1-0.8,4-3.9C1367.2,570.9,1369.9,551.8,1368.8,532.6z"/>
	<path class="st8" d="M800.4,599c14.1,0.5,26.6-3.2,36.4-13.5c8.3-8.7,11.5-19.9,13.2-31.6c2-13.5,0.9-26.7-1.9-40
		c-0.5-2.4,0.1-4.2,2.2-5.6c3.9-2.5,7.7-5.1,11.6-7.7c2.1-1.4,3.3-1.6,4.3,1.4c4.1,12.3,8.5,24.4,12.8,36.6c0.5,1.5,1.1,2.9,0.3,4.8
		c-9,20.9-17.9,41.8-26.9,62.7c-0.3,0.8-0.7,1.5-1.1,2.3c-3.9,9.6-3.9,9.2-14.4,9.7c-17.2,0.9-34.3,2.5-51.5,3.8
		c-6.1,0.4-12.2,1.1-18.4,1c-4.5-0.1-8.9,1.1-13.4,1.2c-2.7,0-4.3-0.8-5.5-3.3c-10.5-22.8-21.1-45.5-31.6-68.3
		c-0.1-0.3-0.2-0.6-0.4-0.9c-6.8-8.4-4.4-16.3,0.6-24.6c3.3-5.4,5.8-11.2,8.5-16.9c1.2-2.6,2.6-3.2,4.9-1.3c0.4,0.3,0.8,0.6,1.2,0.9
		c3.4,2.3,9,2.5,10.1,6.5c0.9,3.6-1,8-1.8,12.1c-2.3,12.9-1.9,25.6,2.8,38c5.3,13.9,15.4,22.5,28.9,27.7
		C780.7,597.5,790.5,599.3,800.4,599z"/>
	<path class="st8" d="M874.8,615.9c0.5,8.4,1.8,17.3,5,25.7c1.3,3.4,1.1,5.3-2.3,7.2c-9.2,5-9.1,5.2-13.7-4.2
		c-3.8-7.6-7.5-15.2-11.5-22.7c-1.2-2.3-1.2-4.1-0.2-6.5c10-23,19.8-46.1,29.5-69.1c0.8-1.9,1.5-3.2,3.7-3.3
		c6.3-0.2,12.6-0.8,18.9-0.9c17.4-0.3,34.8-1.6,52.2-2.3c16.7-0.7,11.4-3.2,20,11.5c3.5,5.9,6,12.2,9.3,18.2
		c1.7,3.1,0.9,4.5-2.3,5.3c-1,0.2-1.9,0.6-2.8,0.9c-4.1,1.4-8.3,4.2-12.2,3.8c-3.9-0.4-4.7-6.3-7.7-9c-8.5-7.7-18.5-11.4-30.1-9.8
		c-11.5,1.5-22.5,4.8-32.4,10.8C882,581.4,875.2,596.7,874.8,615.9z"/>
	<path class="st8" d="M703.9,542c3-0.5,4.6,0.8,5.8,3.5c5.4,12.1,11,24.2,16.6,36.2c6.2,13.2,12.5,26.5,18.8,39.6
		c1.5,3.1,1.5,5.7-0.2,8.8c-5.1,9.7-10,19.6-14.8,29.4c-1.2,2.5-2.1,3.4-4.7,1.5c-3.2-2.4-6.6-4.5-10.1-6.4c-3.4-1.9-3.6-4.6-3.2-8
		c1.9-17.7,2-35.2-6.5-51.5c-8.4-16.2-22.3-25-39.9-28.2c-2.7-0.5-3.7-1.1-3.8-3.8c-0.2-4.6-1.2-9.2-1-13.9c0.1-2.2,0.8-2.9,3-3.6
		c5-1.4,10.2-1,15.3-1.6C687.4,543.3,695.7,542.9,703.9,542z"/>
	<path class="st8" d="M842.2,620.7c4.2-1.3,6.8,1.7,9,6.6c4,8.6,8.5,16.9,13,25.2c1.3,2.4,1.2,3.7-1.3,5.1c-5.2,2.9-10.4,6-15.3,9.3
		c-2.7,1.8-3.6-0.4-4.9-1.7c-7-7.1-14.5-13.5-23.9-17.5c-17.2-7.3-33.1-3.7-48.4,5.3c-8.4,4.9-15.8,11.1-22.2,18.3
		c-1.9,2.1-3.5,2.6-5.8,0.7c-1.8-1.5-3.7-3-5.8-3.8c-5.8-2.2-4.9-5.3-2.4-9.7c5-9,9.6-18.2,14.3-27.4c1.5-2.9,3.4-3.9,6.6-4.1
		c18-0.9,36-2.4,54-3.7C819.5,622.4,830.1,621.6,842.2,620.7z"/>
	<path class="st8" d="M987.1,504.4c-2,3.8-4.1,7.6-6.1,11.3c-3.1,5.7-6.4,11.3-9.4,17c-1.2,2.4-2.8,3.2-5.5,3.3
		c-18.1,0.6-36.2,0.7-54.2,2.2c-8.8,0.8-17.6-0.6-26.3,1.6c-2.1,0.5-3-1-3.6-2.7c-4.4-12.4-8.7-24.7-13-37.1c-0.6-1.8-0.7-3,1.4-4.5
		c10.3-7.3,10.4-7.6,18.8,1.3c8.7,9.1,18.4,15.9,31.1,18.3c11.7,2.2,22-1.1,32-6.2c5.6-2.9,10.7-6.6,15.3-11.1
		c2.6-2.6,5.3-3.2,8.6-0.5c2.5,2.1,5.9,3.1,8.8,4.7C985.9,502.5,987.4,502.6,987.1,504.4z"/>
	<path class="st8" d="M660.9,531.9c0-8.8,0-8.8,8.7-11.3c13.5-4,25.6-10.2,33.6-22.5c1.2-1.9,2.4-2.4,4.5-1.2
		c4.6,2.6,9.3,5.1,14.1,7.5c2,1,1.4,2.1,0.7,3.6c-4.4,9.1-8.8,18.3-13.2,27.4c-0.9,1.9-2,3.4-4.3,3.6c-12.2,1-24.4,2.1-36.6,3
		c-7.3,0.5-7.3,0.3-7.4-7C660.9,533.9,660.9,532.9,660.9,531.9z"/>
	<path class="st8" d="M1177.9,626.4c-0.8,7.8,0.3,16,2.1,24.1c0.7,2.9-0.2,4.1-2.4,5.6c-9.5,6.4-9.4,6.5-14.5-3.6
		c-4.4-8.8-8.7-17.6-13.2-26.3c-1.5-2.8-1.5-5.1-0.2-8c10.4-21.9,20.7-43.9,30.9-65.9c1.6-3.4,3.6-4.3,7.2-4.5
		c15.8-1.1,31.6,0,47.4-1.1c13.5-0.9,27,0.5,40.4-1.1c7.3-0.9,9.4,2.3,12,7.6c10.6,20.7,21.5,41.3,32.4,61.9
		c1.4,2.6,1.6,4.8,0.6,7.5c-4.3,11.2-8.5,22.3-12.5,33.6c-1.1,2.9-1.7,4.2-5,2c-3.9-2.5-8.2-4.4-12.4-6.4c-3.6-1.7-4.7-4-3.6-8.2
		c3.4-12.6,4.2-25.4,0.9-38.3c-4.4-17.7-15.2-29.5-32.5-35.3c-13.2-4.5-26.8-6.4-40.6-3.7c-19.4,3.9-30.2,16.7-34.9,35.4
		C1177.8,609.6,1177.6,617.7,1177.9,626.4z"/>
	<path class="st8" d="M1152.9,548.9c0.4-9-1.5-17.8-4.8-26.4c-1.3-3.3-0.6-5.1,2.4-6.8c4.6-2.6,9-5.5,13.5-8.3
		c1.9-1.2,3.1-1.3,3.9,1.4c3.6,11.9,7.4,23.8,11.2,35.6c0.5,1.5,0.2,2.5-0.4,3.8c-6,13-12,25.9-18,38.9c-4.6,9.9-9.4,19.8-13.9,29.8
		c-1.3,3-3.1,4.1-6.4,4.2c-20.4,0.8-40.7,1.6-61.1,3.1c-6,0.4-11.9,0.5-17.9,0.9c-2.7,0.1-4.2-0.9-5.4-3.3
		c-4.5-8.9-9-17.8-13.8-26.6c-1.6-3-1.1-4.3,2.1-5.3c4.6-1.4,9.1-3.2,13.6-4.8c1.4-0.5,2.7-1,3.8,0.9c9.2,16.1,23.5,20.3,40.8,17
		c14.6-2.8,27.9-8,38.3-19.4C1150,573.6,1153.3,562.2,1152.9,548.9z"/>
	<path class="st8" d="M1202.8,544c-5.5,0-11-0.1-16.5,0c-2.5,0-3.9-0.6-4.7-3.3c-3.4-11.4-7.1-22.8-10.7-34.2
		c-0.4-1.2-1-2.5,0.7-3.5c3.4-2,6.8-4.2,10.1-6.4c1.9-1.2,2.7,0.4,3.7,1.3c12.3,9.9,24.9,19.4,40.2,24.3c10.8,3.5,21.3,3.2,30.9-3.3
		c6.9-4.7,12.3-11.1,17.3-17.8c0.8-1.1,1.6-2.1,2.5-3.1c2.2-2.4,3.7-7.3,6.8-6.5c5.3,1.4,10,5.1,14.3,8.7c0.9,0.7,0.6,2.2,0.2,3.3
		c-4.5,12-9,23.9-13.3,35.9c-0.7,1.9-1.8,2.4-3.7,2.5c-10,0.3-19.9,1.1-29.9,0.9C1234.7,542.5,1218.8,544.3,1202.8,544z"/>
	<path class="st8" d="M1141.9,624c2.1-0.2,3.4,0.8,4.3,2.6c5.8,11.8,11.7,23.5,17.6,35.2c1.1,2.1,0.7,3.2-1.4,4.3
		c-4.5,2.5-8.9,5.1-13.2,7.9c-2.6,1.8-3.7,1-5.5-1.3c-8.2-10.1-17.6-18.9-30.4-22.5c-14-3.9-27.2-1.2-39.7,6.2
		c-5.2,3.1-9.7,6.9-14.3,10.7c-2,1.6-3.7,1.9-5.8,0.5c-0.8-0.5-1.8-0.9-2.7-1.4c-12-6.4-11.4-2.6-4.4-16.3c2.2-4.4,5.7-8.4,7.2-13
		c2.4-7.5,7.8-8.9,14.4-9.1c6.3-0.2,12.6-0.4,18.9-0.8c16-1.2,32.1-1.5,48.2-2.2C1137.3,624.8,1139.6,624.3,1141.9,624z"/>
	<path class="st8" d="M1358.2,618.9c-9.2-2.3-20.5,0-31.5-1.9c-2.2-0.4-3.1-1.5-3.9-3.2c-9.9-19.2-19.2-38.8-30.1-57.4
		c-5.6-9.6-6-17.7-1.2-27.3c3.6-7.2,5.8-15.2,8.4-22.9c1.1-3.1,2.5-3.5,5-1.7c1.3,1,2.6,2.3,4.1,2.8c8.2,2.6,7.5,8.8,6.8,15.3
		c-2.4,21.1,1.3,40.8,15.1,57.5c8,9.6,19.2,14.7,31.5,16.7c3.4,0.6,5.3,1.5,4.7,5.5c-0.5,3.3-0.1,6.6-0.1,10
		C1366.8,619,1366.8,619,1358.2,618.9z"/>
	<path class="st8" d="M1335.7,620.9c9.3,0.1,18.5,1.6,27.8,1c2.8-0.2,3.3,1.3,3.3,3.7c-0.1,4.3-0.1,8.7,0,13c0.1,2.9-1.1,3.8-4,4.5
		c-13,3.3-25.4,7.9-34.4,18.7c-0.3,0.4-0.6,0.8-1.1,1.1c-2.2,1.5-2,6.3-4.8,5.6c-4.2-1.1-8-3.9-11.8-6.2c-1.4-0.8-0.8-2.3-0.3-3.6
		c4.2-11.2,8.3-22.4,12.4-33.6c1-2.9,2.6-4.4,5.8-4.1C1331.1,621.1,1333.4,620.9,1335.7,620.9z"/>
</g>
</svg>
